<?xml version="1.0" encoding="UTF-8"?>
<svg version="1.1" viewBox="0 0 1168 1600" width="1280" height="1280" xmlns="http://www.w3.org/2000/svg">
<path transform="translate(0)" d="m0 0h1168v791l-4-1h-9l-16 5-36 13-36 12-43 14-35 11-65 20-24 9-20 6-29 11-24 9-19 7-43 14-38 13-69 23-15 6-63 21-28 10-51 17-29 10-48 16-29 9-44 15-15 6-47 17-24 8-15 6-24 7-28 10-30 10-22 7-36 12-26 9-27 9-53 16h-4zm1053 76-10 5-4 4v34l2 65 3 19 2 6 8 2 10-3 2-3 1-5 1-55-1-59-4-8-3-2zm-54 20-10 5-3 5-1 5 1 10 2 49 2 21 2 9 6 9 10 9 3-1 2-11v-99l-3-9-3-2zm-53 19-11 6-2 2-1 6v36l2 44 2 39 3 5 2 1h11l8-3v-130l-2-5-2-1zm-869 29-2 1-1 4-1 55v53l1 176 2 173 3 5 9 3 21-5 32-11 29-11 18-7 26-8 44-15 20-7 38-12 12-6 2-3 1-34v-224l1-92-5-6-8-5-13-3-43-5-44-4-59-5-42-3-32-4zm773 0-16 4-12 7-10 9-7 7-7 11-9 19-5 17-2 17-1 13v21l3 23 6 16 6 12 7 9 7 6 10 4h15l16-5 11-6 13-11 6-8 9-17 8-21 3-11 1-7 1-22-3-35-6-21-8-16-8-8-10-5-9-2zm-220 0-29 3-66 5-89 8-38 4-14 3-10 5-18 13-12 3-11 3-1 309 1 18 2 5h2v2l14-3 27-9 25-9 30-10 19-7 40-13 75-25 28-10 31-11 4-2 1-11 2-224v-45l-6-2zm52 430-15 7-19 4-5 8-5 15-3 5-3 8v3l-3-1-2 2v-3l-13-5-7-2-10-7-10-9-6-4-5 1-7 7-4-1-5-8-3-5-2-1h-6l1 18 5 29 2 16 2 3h7l6-3 1-5-5-20 6-9 3-2 10 1 14 7 11 9 4 2 7 1 6-5v-2h2v2l8-2 5-4 3-6 2-12 5-6 25-9 4-1 11 13 8 3 5-1 4-4-3-9-9-10-7-6-4-2zm-160 21-3 3-1 3-1 17-14 7-15 6-17 7-5 5-1 2v16l2 22 4 5h7l6-4 2-5-1-11-5-17 7-3 14-5 15-5h5l2 5 3 19 3 4 6 1 8-3v-7l-6-22-3-24-3-12-2-4zm-91 56-4 1-4 6v11l-8 3h-16l-5 5-5 8-4 14-3 15 1 4h9l5-3 4-8 4-13 5-5 16-7 6-3 3 1 2 4 8 11 6 2 5-1 6-4 1-4-8-11-10-12-9-11zm-223 52-1 5 2 16 5 28 2 17 3 5 3 2h13l30-10 20-9 3-3v-8l-4-4-9 1-38 12h-3l-4-13v-3l9-3 28-10 3-3 1-4-3-6-10 1-25 8h-6l-6-12-9-6zm-32 6-20 6-12 6-4 5-1 53-2 10-6 8-2 6v9l3 14 3 5h10l5-5 2-4v-10l-1-5 10-5 22-8 7-3h4l6 14 3 2h6l6-4 3-5-1-8-5-13-3-5-8-4-10-49-4-9-2-1zm-82 16-2 2 1 4 7 8 5 5h3l-1-6-7-11zm238 11-2 2h6v-2zm238 10-7 6-3 11-1 16 10-2 10-4 3-4 2-10-1-8-6-5zm-95 32-12 3-13 7-10 9-7 10-4 11-1 8 9-1 7-3 9-11 9-8 10-4 9 1 13 5h5l6-4-1-7-6-9-8-5-7-2zm45 11-2 4-1 8 2 1 3-2v-2l6 1 3-3-3-5z" fill="#094F95"/>
<path transform="translate(0)" d="m0 0h1168v305l-7 3-72 24-38 13-23 8-103 35-29 10-41 14-36 12-31 11-60 20-41 14-51 17-40 14-40 13-7 3-16 4-17 6-12 5-9 2-7 3-17 6-25 9-30 10-12 3-18 6-9 4-5 2-10 2-14 6-20 7-12 3-20 7-10 4-32 10-8 4-21 6-7 3-8 2-12 5-12 4-17 6-22 8-30 10-41 14-50 17-16 5-10 3zm1053 76-10 5-4 4v34l2 65 3 19 2 6 8 2 10-3 2-3 1-5 1-55-1-59-4-8-3-2zm-54 20-10 5-3 5-1 5 1 10 2 49 2 21 2 9 6 9 10 9 3-1 2-11v-99l-3-9-3-2zm-53 19-11 6-2 2-1 6v36l2 44 2 39 3 5 2 1h11l8-3v-130l-2-5-2-1zm-869 29-2 1-1 4-1 55v53l1 176 2 173 3 5 9 3 21-5 32-11 29-11 18-7 26-8 44-15 20-7 38-12 12-6 2-3 1-34v-224l1-92-5-6-8-5-13-3-43-5-44-4-59-5-42-3-32-4zm773 0-16 4-12 7-10 9-7 7-7 11-9 19-5 17-2 17-1 13v21l3 23 6 16 6 12 7 9 7 6 10 4h15l16-5 11-6 13-11 6-8 9-17 8-21 3-11 1-7 1-22-3-35-6-21-8-16-8-8-10-5-9-2zm-220 0-29 3-66 5-89 8-38 4-14 3-10 5-18 13-12 3-11 3-1 309 1 18 2 5h2v2l14-3 27-9 25-9 30-10 19-7 40-13 75-25 28-10 31-11 4-2 1-11 2-224v-45l-6-2z" fill="#B5342B"/>
<path transform="translate(403,1087)" d="m0 0h7l3 4 7 23-1 4-19 7-27 8-15 6-4 4-1 123v3l16 1h186l21 1 1 6-1 28-1 1-39 1-10 1-2 2v76l6 2h32l218-1 3-1 1-4 1-75 1-29 2-18v-7l-4-5-4-2-11-1h-59l-2-1v-87l1-1 425-1 34-1v48l-4 16-8 13-6 8-9 6h-322l-4 4h-2l-1 60v97l1 194h-315l-1-85 1-204-3-3-7-1h-169l-3-2-1-147-1-4-10 1-34 10-38 12-29 9-42 12-18 6-30 9-22 7-64 20-14 4-10-1-3-2v-28l10-4 51-16 56-17 37-12 39-12 25-8 35-11 102-32 36-11zm338 92-8 1-1 2v27l3 10 4 2h85l330-1 4-4 2-5 2-15v-10l-3-6-5-1zm-212 240-5 3-2 3 1 58v45l2 6 5 2h13l5-3 1-5v-31l1-57 1-14-5-6-3-1zm40 0-6 3-2 3 1 10v94l2 5 7 2h12l6-2 2-7 1-101-3-5-5-2zm43 0-5 2-2 10 1 4v97l2 5 4 1h30l7-3 2-5v-89l1-13-3-7-7-2zm57 0-4 4-1 13v90l1 7 5 4 2 1h32l6-3 1-2 1-108-3-5-4-1zm63 0-7 3-1 7v99l1 7 7 3 4 1h7l10-4 2-6v-104l-5-5-2-1zm43 0-6 2-2 2v111l1 2 7 2 8-1 2-7 1-36v-53l1-13-4-7zm-245 129-5 3-2 3v29l3 5 6 1 55-1 3-2 2-18v-12l-4-6-6-2zm81 4-5 5-1 7 1 16 2 7 1 1h98l3-3 1-4 1-13v-10l-5-4-2-1-10-1zm121 0-6 3-1 1v27l3 5h51l2-1 2-9 1-10v-10l-4-4-6-2z" fill="#201D1C"/>
<path transform="translate(1165,249)" d="m0 0h3v56l-7 3-72 24-38 13-23 8-103 35-29 10-41 14-36 12-31 11-60 20-41 14-51 17-40 14-40 13-7 3-16 4-17 6-12 5-9 2-7 3-17 6-25 9-30 10-12 3-18 6-9 4-5 2-10 2-14 6-20 7-12 3-20 7-10 4-32 10-8 4-21 6-7 3-8 2-12 5-12 4-17 6-22 8-30 10-41 14-50 17-16 5-10 3v-55l10-4 69-23 4-2 2-3-1-2 10-1 24-7 28-10 29-11 20-7 43-14 36-13 39-12 12-5 4-2 2 1 2 10 10 1 3-17-1-3h2v2l23-7 20-7 36-12 36-13 40-13 75-25 28-10 31-11 4-1v2l13-4 10-4 30-9 24-8 8-3 15-5 23-8 41-14 34-12 30-10 8-3 39-13 152-52 9-3 63-22 21-7z" fill="#FCF830"/>
<path transform="translate(1163,728)" d="m0 0h5v63l-4-1h-9l-16 5-36 13-36 12-43 14-35 11-65 20-24 9-20 6-29 11-24 9-19 7-43 14-38 13-69 23-15 6-63 21-28 10-51 17-29 10-48 16-29 9-44 15-15 6-47 17-24 8-15 6-24 7-28 10-30 10-22 7-36 12-26 9-27 9-53 16h-4v-53l10-4 23-7 14-5 10-3 24-8 23-8 23-7 36-12 28-10 31-10 27-9 17-6 20-7 14-4 64-22 36-12 29-10 21-8 22-7 35-12 10-3 67-23 15-5 32-11 37-13 36-12 35-12 18-6 26-9 28-10 36-12 38-13 69-23 70-25 33-11 17-6 29-10 12-4 21-8 20-7z" fill="#FCF830"/>
<path transform="translate(646,111)" d="m0 0h26v2h2l2 10 1 9v31l1 14v46l1 4v107l-1 12v10l-1 3-1 22-2 15v14h8l27-9 10-3 13-5h5v-2l10-3 9-3 15-6 16-5 8-3 16-5 8-3 12-4h4v-2l23-7 8-3 29-10 36-12 16-5 10-4 18-5 16-6 16-5 8-3 17-6 11-3 16-6 24-7 38-13 5 1-3 2-30 10-17 6-9 3-32 11-41 14-59 20-29 10-30 10-29 10-31 11-33 11-43 15-22 7-10 4-31 10-20 6-13 5h-4l1-136 1-101v-45l-5-1-15 1-48 4-50 4-78 7-38 4-14 3-10 5-18 13-12 3-11 2v309l1 18 3 10-3 13-1 2h-8l-3-3-1-8h-2l1-37v-224l1-92-4-5-8-5-13-3-43-5-44-4-59-5-42-3-32-4h-11l-1 59v53l1 176 2 173 2 4 7 4-3 5-12 5-16 5-54 18-1-4 3-2 7-1 9-4 16-5 3-2 13-3 9-4 7-3 3-1 1-5h-14l-3-1-3-6-1-27v-36l-1-3 1-1v-12l1-3-1-3 1-10v-30l1-5-1-4 1-21v-27l1-11v-12l1-4v-33l1-19v-32-3-7l1-5v-14l-1-3 1-4 1-7-1-5 1-1-1-9 1-1v-11l-1-10h2l-1-7v-8l1-1-1-11 1-5-1-3 1-5v-41l-2-12 2-9-3-1v-4h-3l-1-7 2-5 26-1 34 3 23 1 7 1 17 2 23 2 13 2 26 2 32 2 19 2 20 3 22 3 7 1 1 3 5 1 11 6 5 3v2h2l2 4 3 1v2l5 1v2l13 1 1-2h2l1-5 4-6h2v-2l5-5 6-5 10-4 9-2h14l12-2 25-2 51-3 24-3 13-1 23-2h8l1-2 2 1 16-2 27-3h21z" fill="#BD443C"/>
<path transform="translate(991,595)" d="m0 0h6l3 3-1 7-6 4-7 3-12 3-1 1v11l3 9 1 1h6l11-6 9-2h13l5 2v2h2l1 5h5l2-10 3-14 4-8 5-3 6-1 3 2-2 9-2 4-2 16-4 7-4 1v2l-6 4v25l-7 3-7-1-2-3-2-18-2-5-5-5-7 1-18 6-1 2v12l4 15v8l-5 4-5 1-5-5-3-17-5-37-3-10-13 1-2 4-10 2-1 3 2 6v4h2l3 16 1 16 2 11 1 2 1 14-3 6-6 3-10 1-4-4-4-14-3-25-3-2-4 19-5 15-9 19-8 9-4 2h-11l-5-3-3-8h-2l-4 12-8 7-9 6-12 6-18 6-11 4-6-1-4-5-3-8h-4l-4 8-4 7-10 11-8 5-9 4-8 2h-20l-10-4-9-7-4-3-1 3 1 7v11l-3 7-5 4-9 2-7-2-1-1-2-11-2-2-3 13-2 6-7 6-13 2-5-2-5-6h-3v8l-3 7h-2v2l-5 3-8 1-9-4-2 6-4 4-14-1-5-4-7-32-1-3-4 1-12 32-6 13-5 9-6 5h-8l-4-2-4-8-3-20-4-25-2-13v-15l3-5 2-1h10l4 4 5 30 2 4h3l7-14 13-32 2-1-3 23 18-6 4-4 2-10-1-8-5-4-6-1v-1l9-2h7l7-8 7-3h14l5 3 9 11 6 10 5 7h3l2-6 4-29 3-9 6-7 5-2h16l6 7 2 6 3-1 3-8 7-11 7-7 7-5 11-5 15-5 13 1 10 4 11 9h3l-1-10-1-4 1-9 5-4 19-6 11-4 12-3 9-2 10 4 5 5 3 12 1 7 1 4v8l4 2v2l4-1-1-2v-13l-1-3-1-15-2-7v-9l4-6 3-2 7-1 5 2 5 8 2 10v9l2 4 4 1 5-5 5-14 9-20 6-9 5-2h11l2 1 3-7 4-2 7-2 21-7 7-3 13-4zm-471 194-2 4-1 8 2 1 3-2v-2l6 1 3-3-3-5z" fill="#23639D"/>
<path transform="translate(1167,701)" d="m0 0h1v27l-10 3-48 18-13 4-23 8-26 9-38 13-20 7-19 7-17 6-51 17-38 13-63 21-14 5-20 7-25 9-36 12-37 12-27 10-21 7-23 8-24 8-58 20-31 10-23 8-18 6-24 9-33 11-76 26-21 7-17 5-28 10-72 24-38 13-25 8-10 3-34 12-10 3-30 10-17 5-10 3v-22l24-3 18-5 16-6 22-8 14-5 21-7 20-8 21-6 9-4 12-3 14-5 32-11 30-11 20-7 16-6 14-5 10-3 31-11 15-4 12-4 25-10 15-4 19-7 40-12 36-12 19-7 36-12 41-14 25-9 42-14 20-7 30-9 16-6 17-6 19-7 12-4 12-5 31-10 63-21 7-3 14-5 17-6 11-4 13-4 35-10 38-13 7-3 10-3 5-2 10-2 30-11 18-6 13-4 28-9 10-3 6-5z" fill="#0E4C65"/>
<path transform="translate(413,800)" d="m0 0 7 1 8 8 4-4h2l-3 9-3 12 13-3 5-5 3-2v23l2 9 4 7v2l5 2h14l8-4h2l6-12 3-8 6-5 6-1 4 2 2 7-2 8-6 12-9 10-9 6-10 4-4 1h-13l-10-3-2-1 7 3 3 1h20l-2 2-15 1-10-2-7-4-6-5-9-12-4-17v-15l1-4v-7l-2-1-2 6-7 12-8 14 1 5 6 5 2 1v2l5 2 5 6 7 5 6 8 2 6-2 5-5 3h-16l-8-5-5-4-9-7v-2l-8-1-2 7 1 12v10l-3 5-7 5-11 1-8 6-4 2h-7l-6-3v-2l-4-2-4-6v-2h-8l-3 1-2-1v2l-10 3-4 8-2 14-4 6-7 3-12 2-5 4-9 3-6-2-4-8-1-4-3-1-3 10-3 9-7 5-8 2-6-1-6-7-7-11h-3l2 13v11l-3 5-4 2h-9l-5-3-3-4-3-14-2-20-3-13-2-11-1-4v-14l5-10 7-3h9l7 3 10 15 3 4v3h2l6 11 3-3 4-18 3-25 7-8 6-3 12-1 5 3 6 14 3 14 1 7 1 18 2 6h2l5-19 2-22 2-9 2-5 2-14 6-8 5-3 2-1h13l7 8 10 15 4 7 7 12 5 8v2l4 1-3-25-4-21-1-7v-12l4-5 4-1h13l7 10 1 2 4-1 7-9 8-13 8-7 6-3z" fill="#29679D"/>
<path transform="translate(647,114)" d="m0 0h18l5 5 1 10-1 29v108l-1 1 1 26v48l-1 14v19l-1 18-2 14 2 8h9l47-15 19-7 25-9 36-12 28-10 41-14 36-12 82-28 36-12 38-13h2v-2l25-8 29-10 5 1-3 2-30 10-17 6-9 3-32 11-41 14-59 20-29 10-30 10-29 10-31 11-33 11-43 15-22 7-10 4-31 10-20 6-13 5h-4l1-136 1-101v-45l-5-1-15 1-48 4-50 4-78 7-38 4-14 3-10 5-4 3h-2l2-4 4-1v-3h2l-1-3 7-1 3-4-6-9 1-3 4-2 7-8 6-2 35-2 13-3 19-2 27-1 25-2 22-3 47-4 25-3z" fill="#D66F65"/>
<path transform="translate(1167,305)" d="m0 0h1v22l-8-2h-12l-10 2-9 4-4 1-17 5-7 2-12 5-13 4-9 4-30 10-13 5-19 6-7 3-13 4-20 7-19 6-16 5-7 3-10 2-12 5-21 7-24 9-36 12-11 3-9 3-19 7-10 4-15 4-7 3-17 5-18 6-10 4-3 2-12 3-7 3-21 7-9 4-19 7-9 2-8 4-27 9-13 4-9 3-10 3-7 2-16 6-28 11-9 2-7 3-19 6-22 8-13 4-21 6-9 4-12 4-8 3-11 4-12 4-12 5-21 7-15 4-14 6-15 5-14 4-14 5-23 7-33 11-13 4-12 5-17 5-15 5-14 4-21 7-9 2-6 3-5 1-17 6-6 3-17 4-15 5-10 2-13 5-4 4-8 1v-11l10-4 10-3 36-12 43-15 27-9 35-12 17-6 16-6 12-4 6-3 9-2 11-4 17-5 8-4 16-5 13-4 13-5 24-8 5-1 20-7 17-7 10-2 8-4 9-3 10-3 8-3 12-3 41-14 19-7 12-4 4-2 8-2 16-6 21-7 8-2 41-14 36-12 40-14 46-15 31-11 57-19 26-9 91-31 36-12 85-29 28-10 93-31z" fill="#0D4C65"/>
<path transform="translate(55,115)" d="m0 0h26l44 4 37 3 45 5 36 2 42 5 23 2 8 3 4 3 8 2 4 6 4 2 1 7 3 1v2h-3v2l-4 1-1 5 2 6h4v2h5l2-2h2l2-3 10-2 4 4v5l-4 2 5 1v-2l5-1v4l-9 4-17 3v309l1 18 3 10-3 13-1 2h-8l-3-3-1-8h-2l1-37v-224l1-92-4-5-8-5-13-3-43-5-44-4-59-5-42-3-32-4h-11l-1 59h-1l-1-31-1-2v-6l-3 1v10l1 3h-2l1 4-1 2h-3l-1-25v-16l-1-5v-8l-1-4-5-3-2-5z" fill="#DD8B7B"/>
<path transform="translate(665,712)" d="m0 0h9l5 4 4 13 3 15 2 23 4 16v10l-8 10-7 1-6-3-2-11-2-2-3 13-2 6-7 6-13 2-5-2-5-6h-3v8l-3 7h-2v2l-5 3-8 1-9-4-2 6-4 4-14-1-5-4-7-32-1-3-4 1-12 32-6 13-5 9-6 5h-8l-4-2-4-8-3-20-4-25-2-13v-15l3-5 2-1h10l4 4 5 30 2 4h3l7-14 13-32 2-1-3 23 18-6 4-4 2-10v-6l4 4 3 9 3 23 3 11 2 6v-15l-2-17-6-19v-8l3-8 5-4 2-1h12l6 3 9 14 6 12 6 9 2 2 4 1 4-18 5-30 3-8 5-5zm-145 77-2 4-1 8 2 1 3-2v-2l6 1 3-3-3-5z" fill="#23639D"/>
<path transform="translate(459,607)" d="m0 0h12l3 2 3 16 4 7 2 2-12 5-4 4-1 2v16l2 22 3 4h7l5-3 2-5-1-11-5-17 5-3 12-4 7-3 3 1-1 2h-3v2l-10 3h-3v2l-2 1v9l1 14v7l-8 8-10 2-6 1-2 5-3 2h-8l-8-4-9-8-11-1-5 2-6 3h-2l-1 4h-2v10l-5 11-5 5-2 1h-13l-5-2v-2l-5 1-3 1-2 5-3 3h-2v2l-11 8-16 6-9 1h-12l-10-4-10-8-6-8-3-7v-4l-3 3-5 9-5 2-1 2-12 2-1 2h-5l-3 3-10 2h-3l-3 6 1 8 2 2-4-1-4-13 1-3 11-5 26-9h2l1-6-2-5-10 1-19 6-3-1 9-5 10-4 9-3 7-1 7 1h3l1-13 6-17 8-10h2l2-4 10-7 16-6 4-1h24l7 3 5 3 4 6 1 7-3 5-4 3h-14l-8-4-9-1-10 3-3 3h-2l-6 12-1 4v16l4 6v2l4 2 4 1v2l10-1 6-3h2l1-3h2v-2h2v-2h2l1-6 4-10 3-4 6-2h9l6 3 4-1v-7l3-11 4-2 1-10 2-12 3-9 5-9 5-4 2-1h11v2l5 2 7 8 11 16 2 5 3 1 9 11 2 6-5-5-7-8-9-11-4-2h-4l-2 4-1 6v7l-9 4h-16l-5 5-5 10-5 21-1 8h9l5-3 8-22 9-6 10-4 8-4 5 5 8 11 6 2 5-1 6-4-1-4-4-7h9l-4-13-4-15-5-30 1-10zm-127 129-2 2h6v-2z" fill="#25649D"/>
<path transform="translate(659,535)" d="m0 0h7l6 3v2l4 2 10 13 8 10v2h2l2 6h2l6 11 7 10 2 4v7l-3 3-8 1-4-1v-2h-3l1-2 7 1 5-4-3-9-9-10-6-5-4-2-9 1-12 6-19 4-4 7-5 15-3 5-4 11-6 2 1-4-9-2-11-4-10-7-10-9-6-4-5 1-7 7-4-1-4-5-4-8-8-2 3 24 4 23 2 16 1 2h7l6-3-1-10-4-12 2-5 4-6 4-3 10 1 14 7 11 9 4 2 9 1 2-4h2v-2h2v2l10-4 5-8 2-12 6-7 25-9 4-1 11 13-2 1-3-2v-3l-14-1-8 3h-3l-2 4h-3l-3 9-3 10-3 6-4 4-16 3-2 4-6 2-8-2-14-7-5-4-6-3-5-1-2-2-3 7v11h-2l1 6-2 6-5 4-7 2-7-1-4-2-4 1-2 7-5 5-2 1h-8l-8-4-2-4-2-11-2-6-3-4-3 1-2-1-4-1 10-3h5l3 6 3 19 2 3 6 1 8-2-3-15-4-14-3-24-4-16-7 1-3 5-1 17-8 5-1-2 4-4-4-10-1-10 4-9 4-3 3-1h9l5 4 4-2 2-6 5-5 3-1h11l4 2 4 6 4 8 4-1 1-4 8-12 9-12 6-5 7-2h11l3 4-1 7-4 7-9 14-6 8v5l5 5 5 3 8 6 5 2 5-3 4-13 2-9 1-9 4-14 2-14 4-10 6-5z" fill="#24649D"/>
<path transform="translate(647,114)" d="m0 0m-14 1h14l17 1 2 3v6l-3 3h-8l-3-1-2 1 3 9-1 2-5-1-4-2h-2v-2h-9l-11-1-29-1h-30v2h2v2h9l4 1 19 2 16 2 18 3v1l-29 3-66 5-89 8-38 4-14 3-10 5-4 3h-2l2-4 4-1v-3h2l-1-3 7-1 3-4-6-9 1-3 4-2 7-8 6-2 35-2 13-3 19-2 27-1 25-2 22-3 47-4 25-3z" fill="#D66F65"/>
<path transform="translate(1167,305)" d="m0 0 1 4-16 4-22 8-26 9-17 6-16 6-21 7-22 8-24 8-19 7-17 6-48 16-40 14-16 6-21 7-9 4-7 1-11 5-14 4-17 6-15 6-14 4-10 4-16 5-8 3-13 4-11 4-17 6-10 3-29 10-18 6-13 5-11 3-8 3-35 12-16 6-17 6-4 2-8 2-9 3-16 5-21 7-7 3-11 3-7 3-13 4-15 5-13 5-13 4-24 8-20 7-12 5-22 7-11 3-15 6-12 3-12 5-10 3-8 3-28 10-22 7-24 9-12 3-51 17-18 5-11 4-13 4-40 13-15 6-7 1 1-5 14-5 11-3 135-46 17-6 16-6 12-4 6-3 9-2 11-4 17-5 8-4 16-5 13-4 13-5 24-8 5-1 20-7 17-7 10-2 8-4 9-3 10-3 8-3 12-3 41-14 19-7 12-4 4-2 8-2 16-6 21-7 8-2 41-14 36-12 40-14 46-15 31-11 57-19 26-9 91-31 36-12 85-29 28-10 93-31z" fill="#4A4F60"/>
<path transform="translate(739,686)" d="m0 0h12l10 4 9 8 5 10 4 16-1 16-6 14-8 11-10 9-10 5-9 2h-11l-10-3-9-6-6-8-5-12-1-7v-13l3-14 9-14 7-7 12-7z" fill="#B5D6DC"/>
<path transform="translate(822,658)" d="m0 0h12l10 6 3 6v17l-1 7 5 2 4 5 2 6v13l-3 8-5 8-9 7-12 5-24 9h-10l-3-4-4-20-2-5-3-29-3-14v-10l5-5 9-4 10-4 1-1 13-2z" fill="#B5D6DC"/>
<path transform="translate(844,180)" d="m0 0h10l6 3 6 8 4 11 2 16v25l-2 15-5 17-7 12-5 6-10 6-4 1h-9l-7-4-5-6-4-13-2-16 1-21 3-17 6-19 6-11 6-7z" fill="#B5352C"/>
<path transform="translate(68,163)" d="m0 0 1 2 3-1v8l1 5 1 80 1 176 2 173 2 4 7 4-3 5-12 5-8 1 3-2 9-4 1-3v-3l-3-1-2-9v-14l-1-18-3-17-1-5 1-1v-6h-2l-1-5 1-2-3 1-1-4 1-7v-3h2v-6l-4 1-1-4 2-5v-15l-2-2h2l-1-7 1-1v-14l-1-6 1-3v-8l-2-16 1-4-1-22 1-17v-20l1-7v-15-4l1-8-1-7 1-3-1-5 1-10 1-5-1-6 1-6-1-6v-17l1-6-1-5v-36l1-9-1-11 1-6-1-3 1-4-1-6 1-17h1l1 12-1 2 3-3 1-4-1-7z" fill="#B0584F"/>
<path transform="translate(69,113)" d="m0 0h13l31 3 23 1 7 2v1h-18l-44-4h-26l1 5 1 3 5 3 1 4v9l1 10v21l-1 21 1 3-2 5 2 1-1 12 1 7-1 13v34l1 2-1 11v15l1 5-1 5 1 5-1 6-1 8 1 5-1 7 1 4-2 9 2 1-1 1v19l-1 6v22l-1 13 1 22-1 5 2 14v8l-1 4 1 9v10l-1 2v6l1 3v14l-2 5 1 3h3l1 4-2 5-1 10h3v7h2l1 7h-2l3 8 2 14 1 28 1 11 3 3 1 5-3 3-8 3h-3v2l-41 14-21 7-1-4 3-2 7-1 9-4 16-5 3-2 13-3 9-4 7-3 3-1 1-5h-14l-3-1-3-6-1-27v-36l-1-3 1-1v-12l1-3-1-3 1-10v-30l1-5-1-4 1-21v-27l1-11v-12l1-4v-33l1-19v-32-3-7l1-5v-14l-1-3 1-4 1-7-1-5 1-1-1-9 1-1v-11l-1-10h2l-1-7v-8l1-1-1-11 1-5-1-3 1-5v-41l-2-12 2-9-3-1v-4h-3l-1-7 2-5z" fill="#BE433B"/>
<path transform="translate(563,749)" d="m0 0 3 1-5 7-15 37-6 10-4-1-2-4-5-30-1-3h-12l-3 2-1 3v18l5 27 3 24 4 10v2l4 1h8l6-5 5-10 8-19 9-24 2-2 4 1 3 11 5 24 4 3 12 1v2l-6 1h-10l-4-3-2-7-3-11-2-4-3-1-1 4-6 15h-2l-1 7-3 4-5 8-2 3h-2l-1 3-5 3h-10l-5-3-5-9-3 1-4 10-5 8-8 7-13 8-7 1h-20l-9-3-5-5 5 2 7 3 4 1h13l10-3 12-7 7-7 7-12 2-5 1-8-2-5-4-1-7 2-4 5-5 12-4 6-10 5h-14l-5-3-6-11-1-7v-18l1-7 10-10 9-5 10-1 16 6h5l5-3-1-7-3-5v-2l6-1v-15l2-5 5-3 13-1 5 2 2 4 4 19 1 2 3-1 6-10 7-16 7-11z" fill="#2A679D"/>
<path transform="translate(666,714)" d="m0 0h7l4 4 4 16 2 9 3 26 4 17-1 7-2 3-8 1-3-4-6-25-2-6-3 1-3 12-4 26-4 6-4 3h-7l-5-5-6-9-5-9-7-9-2-1v15l2 13 1 3v9l-5 5-7-1-3-7-3-14-4-31-3-14v-11l3-5 5-3h9l5 5 7 11 8 16 6 9v2l6 1 4-14 3-13 4-25 4-10z" fill="#81AFCC"/>
<path transform="translate(354,1363)" d="m0 0h55l29 1 2 1v37l-1 55-1 2-3 1h-89l-1-4v-92zm19 13-9 2-5 5v52l2 10 8 2h51l4-2 1-3 1-13 1-45-4-6-3-2z" fill="#242222"/>
<path transform="translate(230,1363)" d="m0 0h54l11 1v92l-6 2h-49l-35-1-2-2-1-13v-77l1-1zm0 13-10 2-3 2-1 5v53l1 4 9 2h49l3-2 2-12v-48l-2-5-2-1z" fill="#252322"/>
<path transform="translate(1165,726)" d="m0 0h3v2l-10 3-48 18-13 4-23 8-26 9-38 13-20 7-19 7-17 6-51 17-38 13-63 21-14 5-20 7-25 9-36 12-37 12-27 10-21 7-23 8-24 8-58 20-31 10-23 8-18 6-24 9-33 11-76 26-21 7-17 5-28 10-72 24-38 13-25 8-10 3-34 12-10 3-30 10-17 5-10 3 1-3 36-12 38-13 27-9 29-10 32-11 15-5 70-24 57-19 29-10 14-5 33-11 43-15 33-11 38-13 25-9 69-23 28-10 43-14 20-7 126-43 97-33 36-12 41-14 47-16 20-7 72-24 19-7z" fill="#9F9690"/>
<path transform="translate(252,863)" d="m0 0h6l4 5 5 25 6 38 1 3v8l-4 5h-6l-4-8-5-23-2-7-3-1-2 11-7 35-6 6h-7l-5-5-6-10-6-11-7-8h-2v11l3 21v10l-3 4h-6l-3-3-3-9-4-27-3-20-2-7-1-9 3-7 5-4h10l5 6 5 9 6 9 6 12 6 9 4 1 3-7 5-29 2-17 4-10 5-5z" fill="#B5D6DD"/>
<path transform="translate(332,181)" d="m0 0h1l1 17 3 1 3-1 2-7h1v309l1 18 3 10-3 13-1 2h-8l-3-3-1-8h-2l1-37v-224l1-73z" fill="#B2BCA9"/>
<path transform="translate(55,115)" d="m0 0h26l44 4 37 3 45 5 36 2 42 5 23 2 8 3 4 3 8 2 4 6 4 2 1 7 3 1v2h-3v2l-4 1-1 5 2 6h4v2h5l2-2h2l2-3 10-2 4 4v5l-4 2 5 1v-2l5-1v4l-9 4-15 3h-3l-1 7-6 2-2-2-1-17-4-6-9-6-13-3-43-5-44-4-8-2 4-3 40-3 11-1 7-1 17-2 15-2 5-1v-2l-14-2-36-3-25-3-7-1-37-3-15-2-33-3-30-3-39-3h-16l-1 4h2v2l9 3 1 5 2 2v1h2v-3l3 1 5-1 5 1 5-1 11-2 38 2 26 3 3 2 2 1-4 1-22 1-49 5-21 1-1 59h-1l-1-31-1-2v-6l-3 1v10l1 3h-2l1 4-1 2h-3l-1-25v-16l-1-5v-8l-1-4-5-3-2-5z" fill="#D66F65"/>
<path transform="translate(994,204)" d="m0 0 5 5 9 8h3l1 16 2 6 7 1 17-5 6-3 2-4 2-18 11-1 5-1 1-2v36l-3 6-8 5-30 11-31 11-42 14-7-1-2-11v-23l17-2 1 4 2 1h14l9-4 6-2 2-5 1-37z" fill="#FDFDFD"/>
<path transform="translate(991,595)" d="m0 0h6l3 3-1 7-6 4-7 3-12 3-1 1v11l3 9 1 1h6l11-6 9-2h13l5 2v2h2l1 5h5l2-10 3-14 4-8 5-3 6-1 3 2-2 9-2 4-2 16-4 7-4 1v2l-6 4v25l-7 3-7-1-2-3-2-18-2-5-5-5-7 1-18 6-1 2v12l4 15v8l-5 4-5 1-5-5-3-17-5-37-3-10-10 1-7 1v2l-5 1-4-4 1-6 6-4 11-4 20-7 8-3z" fill="#B6D7DE"/>
<path transform="translate(917,622)" d="m0 0h7l3 5 5 24 6 40 2 6-1 7-6 4-5-1-3-3-2-7-5-38-2-5-3 3-5 12-9 23-5 14-6 15-5 5-5 2-5-1-3-3-2-9-5-32-4-25-1-8 2-5 3-2h6l4 4 3 19 3 20 1 6 5-3 8-17 4-15 2-4h2l3-10 8-16z" fill="#B6D7DE"/>
<path transform="translate(413,800)" d="m0 0 7 1 8 8 4-4h2l-3 9-3 12 13-3 5-5 3-2v23l2 9 4 7v2l5 2h14l8-4h2l6-12 3-8 6-5 6-1 4 2 2 7-2 8-6 12-9 10-9 6-10 4-4 1h-13l-10-3-2-1 7 3 3 1h20l-2 2-15 1-10-2-7-4-6-5-9-12-4-17v-15l1-4v-7l-2-1-2 6-7 12-8 14 1 5 6 5 2 1v2l5 2 5 6 7 5 6 8 2 6-2 5-5 3h-16l-4-6 6 3h11l4-3v-6l-5-6-8-6v-2l-4-2-14-12-3-5 1-7 14-21 5-11-2-5-4-1-8 3-5 4-7 10-8 14-3 5h-2l-1 3-4 2-4-7v-5l2 3 4 4 8-10 3-5 1-6 7-10 7-6 6-3z" fill="#26659D"/>
<path transform="translate(1042,840)" d="m0 0h8l1 1v22l-1 25v58l-1 11-3 5-5 1-1-1-1-49-1-2-10 2-31 16-7 5h-2l-1 6v47l-2 7-2 1h-7v-78l-1-24v-14l4-4 4-2h4l1 43 2 3 6-1 31-16 11-7v-51l1-3z" fill="#484747"/>
<path transform="translate(735,699)" d="m0 0h12l6 4 8 9 2 5 1 6v16l-3 10-6 8-7 6-10 4h-14l-8-4-5-8-4-13v-10l3-12 6-9 8-7 8-4z" fill="#094F95"/>
<path transform="translate(583,760)" d="m0 0h1l4 26 5 30 1 3v9l-3 3-7 1-5-5-6-32-3-8-4-1-8 21-5 12-6 16-6 12-5 4-6 1-5-4-3-9-3-24-5-24-1-6v-9l3-8 1-1h6l5 5 3 19 3 17v3l6-1 7-13 5-13 6-15 2-4-1 14 18-6 4-4zm-63 29-2 4-1 8 2 1 3-2v-2l6 1 3-3-3-5z" fill="#81AFCC"/>
<path transform="translate(308,845)" d="m0 0 9 1 4 5 15 24 6 11 8 13 6 9v6l-4 4h-6l-8-7-6-9-9 1-18 7-4 6-3 18-4 4-7 1-3-5 1-9 5-24 3-18 4-16 2-13 4-7z" fill="#B5D6DC"/>
<path transform="translate(408,808)" d="m0 0h6l2 2-1 6-6 11-3 5h-2l-2 5-4 7-1 6 7 8 12 11 11 9 4 6-1 5-5 3-7-1-17-13-11-9-6-1-6 8-1 3v8l2 8v9l-5 5-7-1-4-8-2-16-3-17-4-29 1-10 4-2h6l3 4 3 15 2 5 5-2 6-7 9-15 7-11z" fill="#B5D6DD"/>
<path transform="translate(936,900)" d="m0 0h9l5 3 4 7 2 12v9l-2 10-7 14-10 11-13 9-17 9-7 5-1 50-3 3-7 1-1-1-1-115 8-6 25-14 13-6zm-3 13-12 5-16 9-6 5-1 2 1 37 5 2 6-1 15-8 11-8 6-9 3-8 1-12-2-8-5-6z" fill="#252424"/>
<path transform="translate(1028,352)" d="m0 0 4 1-34 12-29 10-36 12-44 15-77 27-36 12-31 11-36 12-38 13-27 9-41 14-53 18-28 10-57 19-26 9-19 6-7 3-33 11-38 13-30 10-40 14-29 10-36 12-70 24-24 8-31 10-35 12-24 8-19 7h-4l1-3 14-5 11-3 135-46 17-6 16-6 12-4 6-3 9-2 11-4 17-5 8-4 16-5 13-4 13-5 24-8 5-1 20-7 17-7 10-2 8-4 9-3 10-3 8-3 12-3 41-14 19-7 12-4 4-2 8-2 16-6 21-7 8-2 41-14 36-12 40-14 46-15 31-11 57-19 26-9 91-31 36-12 47-16z" fill="#A9786A"/>
<path transform="translate(1065,78)" d="m0 0 5 1 1 87 1 27 1 17v39l-3 5-8 5-6 2-11 4-4 2h-6v2l-12 4-9 4-10 3-7 3-13 4-11 4-9 2-11 5-13 1-5-3-3-7-1-9-1-26v-22l-1-4 1-8v-15l1-28 1-12h1l2 44 2 39 2 4 3 2 1 26 1 8h8l29-10 12-4 7-3 10-3 17-6 18-7 13-5 5-5 1-3 1-37 1-5 1-55-1-59-3-7z" fill="#AF574E"/>
<path transform="translate(336,653)" d="m0 0h12l10 4 5 4 1 6-3 4-4 1-17-5h-9l-9 3-5 3-6 7-4 8-1 4v16l3 10 8 7 2 1h17l8-4 6-5 3-5h2l1-5 4-8 2-1h8l2 6-4 10-4 7h-2l-2 4-8 7-14 7-11 2h-9l-13-4-9-8-4-8-3-12v-15l3-10 6-9 9-9 13-8zm-4 83-2 2h6v-2z" fill="#B6D7DE"/>
<path transform="translate(914,809)" d="m0 0h4v2l-38 13-36 12-164 56-36 12-38 13-31 11-69 23-25 9-36 12-50 17-43 15-16 5-19 7-40 13-26 9-28 10-43 14-8 3-27 9-25 9-36 12-35 12-11 3v-2l38-13 23-8 8-3 15-5 5-3 9-3 5-3h3l5-2 10-2 10-5 10-2v-2l21-6 26-8 21-7 7-3 18-6 7-3 17-5 26-9 9-3 17-6 18-6 26-9 10-3 10-4 11-3 10-4 8-3 9-3 13-4 3-2 21-7 8-3 16-5 28-9 6-3 10-3 87-29 10-4 16-5 20-7 8-3 36-12 31-10 16-5 8-3 30-10 37-13 18-6 16-5 24-8z" fill="#4A4F60"/>
<path transform="translate(413,804)" d="m0 0 5 2 2 5-7 14-4 6-9 14 1 7 5 6 10 8 4 3v2l4 2 8 7 2 3v6l-5 4h-11l-4-2 1 2-5-1-7-6-9-7v-2l-8-1-2 7 1 12v10l-3 5-7 5-11 1-8 6-4 2h-7l-6-3v-2l-4-2-4-6v-2h-8l-3 1-2-1v2l-10 3-4 8-2 14-4 6-4 1 4-6-4 4-7 1-5-5v-14l5-17 4-27 4-14 2-13 3-5 7-4h8l6 4 11 18 4 4 7 12 13 21 5 3-6-25-4-33-1-5v-14l3-4h13l4 5 3 13 3 3 4-4h2l2-5 12-20 6-7 7-4zm-5 4-8 7-12 19-7 11-4 4-4 1-2-5-3-15-3-4-9 1-2 5 1 13 5 35 2 9 1 11 4 8 7 1 5-5v-9l-2-8v-8l5-9 2-2 6 1 11 9 14 11 6 3 7-1 3-3-1-6-6-7-11-9-13-12-3-4 1-6 4-7 2-5h2l4-7 6-11-1-5-1-1zm-100 37-6 3-4 9-2 14-4 16-4 25-4 16 1 9 2 2 7-1 4-4 3-18 4-6 21-8h6l8 11 6 5h6l4-4v-6l-6-9-9-15-5-9-13-21-6-8z" fill="#25649D"/>
<path transform="translate(644,116)" d="m0 0h20l2 3v6l-3 3h-8l-3-1-2 1 3 9-1 2-5-1-4-2h-2v-2h-9l-11-1-29-1h-30v2h2v2h9l4 1 19 2 16 2 18 3v1l-29 3h-8l-3-2-36-4-35-3-32-1-19-2 2-2 7-2 9-1 49-2 4-2 12-2 28-3 30-2z" fill="#DD8B7B"/>
<path transform="translate(472,798)" d="m0 0 9 1 13 5 2 1 13 2 4 8v8l-5 1h-6l-9 5-5 7-3 11-7 8-11 3-7-2-5-6-3-10v-19l2-6 1-4 7-9z" fill="#094F95"/>
<path transform="translate(1032,1281)" d="m0 0h11l1 5-1 83h-9l-2-1v-40l-2-4-2-1h-9l-5 3v59l-1 2h-9l-1-1-1-61-6-2-13-2-2-6v-3l11-1 39-1v-26z" fill="#262424"/>
<path transform="translate(264,675)" d="m0 0h10l4 3 1 9-4 6-9 4-8 3-7 1v2l-10 2-7 3h-3v2l-3 2v10l8-1-3 2h-6l-7-13-8-5-4-1 1 15 6 33 2 17 3 5 2 1 10 1v1l-10 2-6 8-2-3-5-11-8-4-2-5-9-45-3-9-9-1 4-3 7-1 5 5 6 45 2 9h2l1 2h7l-1-6h-2v-11l-3-9-1-8-4-22v-9l5-5 8-4 27-9 11-4z" fill="#2A679D"/>
<path transform="translate(643,146)" d="m0 0h3v2l4 1 2 3v11l-1 11v10l-1 3v9l-1 3v96l1 44 1 5-1 32v17l-1 16v10l3 2h8l-3 2-13 5h-4l1-136 1-101z" fill="#DD8B7B"/>
<path transform="translate(714,691)" d="m0 0h3l-1 3-8 6-7 8-5 9-4 13v17l4 13 5 8 5 4v3l5 2 5 3 4 1h19l9-3 11-6 7-7 7-10 2-1 7-14 2-3 3 1 2 7v6l-3-4h-4l-4 8-4 7-10 11-8 5-9 4-8 2h-20l-10-4-9-7-4-3-1 3 1 7v11l-3 7-5 4-3-1v-2l5-4 1-2v-10l-4-16-2-23-5-23-3-6-3-2h-9l-5 3-4 7-4 22-5 25-2 5-5-1-5-6-8-14-6-11-4-6-5-2h-12l-6 4-3 8v8l5 16 2 11 1 9v17l-2-2-3-8-2-9-3-23-3-9-7-9-8-2v-1l9-2h7l7-8 7-3h14l5 3 9 11 6 10 5 7h3l2-6 4-29 3-9 6-7 5-2h16l6 7 2 6 3-1 3-8 7-11 7-7z" fill="#25649D"/>
<path transform="translate(656,538)" d="m0 0h9l7 4 13 16 13 19 3 4v2h2l7 10-1 3-6-9-9-9-6-3-9 1-12 6-19 4-4 7-5 15-3 5-4 11-6 2 1-4-3-1 5-2 4-11 6-29 4-18 2-11 4-7 5-4z" fill="#A7C8C7"/>
<path transform="translate(872,934)" d="m0 0 3 1-1 8-9 6-21 12-1 109-5 3h-5l-1-8v-90l-1-3h-8l-15 7-5 1-2-2v-5l5-4 23-12 22-12 18-10z" fill="#454342"/>
<path transform="translate(55,115)" d="m0 0h26l44 4 37 3 45 5 36 2 42 5 11 2v1h-14l-22-2-25-3-7-1-37-3-15-2-33-3-30-3-39-3h-16l-1 4h2v2l9 3 1 5 2 2v1h2v-3l3 1 5-1 5 1 5-1 11-2 38 2 26 3 3 2 2 1-4 1-22 1-49 5-21 1-1 59h-1l-1-31-1-2v-6l-3 1v10l1 3h-2l1 4-1 2h-3l-1-25v-16l-1-5v-8l-1-4-5-3-2-5z" fill="#D66F65"/>
<path transform="translate(407,628)" d="m0 0h10l6 4 8 10 11 16v2l3 1 9 11 2 6-5-5-7-8-9-11-4-2h-4l-2 4-1 6v7l-9 4h-16l-5 5-5 10-5 21-1 8h9l5-3 4-11 2-4v11l-5 8-7 2h-10l-2-2-1-8 5-9 3-15 2-9 5-27 5-13 4-6z" fill="#B6D7DD"/>
<path transform="translate(439,973)" d="m0 0 3 1 5-1 3 1-24 9-38 13-76 26-21 7-17 5-28 10-72 24-38 13-25 8-10 3-34 12-10 3-30 10-17 5-10 3 1-3 36-12 38-13 27-9 29-10 32-11 15-5 70-24 57-19 29-10 14-5 33-11 43-15z" fill="#A0A89E"/>
<path transform="translate(445,820)" d="m0 0h1l1 23 4 10 5 6 5 2h13l10-4 6-7 6-12 5-5 5 1 2 3-1 7-4 10-8 10-8 7-11 5-3 1h-17l-12-6-7-8-4-7-2-10v-20l12-4z" fill="#B6D7DE"/>
<path transform="translate(606,556)" d="m0 0h7l2 2-1 7-7 11-8 11-2 4h-2v10l5 4 11 7 10 7-3 1-11-4-10-7-10-9-6-4-5 1-7 7-4-1-4-5-4-8-8-2 3 24 4 23 2 16 1 2h7l6-3-1-10-4-12 2-5 3-5h1v17l2 11-1 6-6 4-11-1-4-9v-10l-5-24-6-22v-8l5-5 2-1h7l6 5 2 5 2 9 1 2 4-1 7-10 13-19 8-8z" fill="#578DB5"/>
<path transform="translate(605,738)" d="m0 0h7l6 8 5 9 11 21 4 7 3 2h5l6-7 3-1 1 2v14l-2 11-5 4h-6l-4-5-9-19-8-11-3-3h-4l-1 3v11l3 23v9l-5 1-3-5-4-23-2-19-4-15v-10l3-5z" fill="#A7C8C7"/>
<path transform="translate(330,650)" d="m0 0h24l7 3 5 3 4 6 1 7-3 5-4 3h-14l-8-4-9-1-10 3-3 3h-2l-6 12-1 4v16l4 6v2l4 2 4 1v2l10-1 6-3h2l1-3h2v-2h2v-2h2l1-5 4-3 2-4 1 2-4 10-7 8-7 5-5 1h-12l-7-4-4-4-3-9v-16l5-13 9-8 6-3 8-1 9 1 9 4h7l5-3 1-7-1-3-10-6-11-2h-7l-15 4-10 5-11 8-8 10-5 12v21l3 10 6 10 2 5-4-2-6-7-4-9v-4l-3 3-5 9-5 2-1 2-12 2-1 2h-5l-3 3-10 2h-3l-3 6 1 8 2 2-4-1-4-13 1-3 11-5 26-9h2l1-6-2-5-10 1-19 6-3-1 9-5 10-4 9-3 7-1 7 1h3l1-13 6-17 8-10h2l2-4 10-7 16-6z" fill="#2C699E"/>
<path transform="translate(850,1406)" d="m0 0h45l8 7 3 6 1 26v25l-1 1h-10v-23l-2-4-13-2-29-1-3-1v-8l30-1 15-1v-13l-48-1-1-2v-7z" fill="#444242"/>
<path transform="translate(92,717)" d="m0 0h8l7 3 8 11 4 8 1 8-2 4-5 2h-7l-9-7-2-1 1 8-2 5-3 2h-7l-8-5v-2l-4-2-9-9-2-6 1-8 6-3 11-1 6-3zm2 8-2 2 1 4 7 8 5 5h3l-1-6-7-11z" fill="#2E6A9D"/>
<path transform="translate(252,863)" d="m0 0h6l4 5 5 25 6 38 1 3v8l-4 5h-6l-4-8-5-23-2-7-3-1-2 11-7 35-6 6h-7l-5-5-6-10-6-11-7-8h-2v11l3 21v10l-3 4h-6l-3-3-3-9-4-27-3-20-2-7-1-9 3-7 5-4h10l5 6 5 9 6 9 6 12 6 9 4 1 3-7 5-29 2-17 4-10 5-5zm1 2-5 3-5 10-2 12-3 26-4 16-3 4-5-1-8-13-11-19-5-8-4-6-2-1-9 1-4 6v7l4 16 3 28 3 16 3 6 5 1 2-2v-8l-3-20-1-4-1-18 4 1 7 8 8 13 7 14 5 5 7-1 3-4 5-28 4-20 2-7 3 2 5 15 5 25 2 3 5-1 1-1-1-12-5-32-3-16-2-11-2-4z" fill="#81AFCC"/>
<path transform="translate(1068,593)" d="m0 0 7 1 2 2-1 7-4 8-1 7h-2l-1 10-3 5-9 4-8 1-6 5h-2v2l-5 2-1 12v12l-3 5-3 1h-11l-3-4-2-16-3-6-8-3-16 2-3 3v7l5 19v7l-5 6-2 1h-7l-2-4 6 2 6-3 1-1v-8l-4-15v-12l4-4 19-6 6 1 5 6 2 11 1 11 3 3 8-1 3-1v-25l5-4h2v-2l4-2 3-6 2-16 4-10v-3l-4-1-8 3-4 8-4 20-2 4-3 1-2-1-1-5 4 1 2-5 2-9 3-12 5-6 5-2h9l3 2 1-4 4-1 1-3z" fill="#29679D"/>
<path transform="translate(893,1285)" d="m0 0h11l-1 85h-9l-2-2v-41l-1-2-33-1-12-1v-7l4-2 38-1 3-1 1-26z" fill="#252424"/>
<path transform="translate(990,598)" d="m0 0h7l-2 6-10 5-12 5-2 3v8l2 10 4 4 9-1 14-5 4-1h11l5 3 2 5 2 13 3 11-1 5-5 1-2-2-1-15-5-10-6-4-7 1-21 8-3 5v20l-1 2-2-1-4-15-4-29-3-9-1-1-9 1-9 2h-5l-1-5 13-6 13-4h3v-2z" fill="#FCFCFC"/>
<path transform="translate(665,712)" d="m0 0h9l5 4 4 13 3 15 2 23 4 16v10l-5 6-2 1h-7l-3-3-3-9-3-13-1-2h-2l-4 18-2 11-3 6-6 4h-9l-5-4-8-13-5-8-3 1v11l3 10v7l-3 6-3 2h-9l-3-3-4-13-5-38-4-17v-8l2-5 6-5 4-1h7l6 3 9 14 6 12 6 9 2 2 4 1 4-18 5-30 3-8 5-5zm1 2-6 4-4 10-2 15-4 19-4 16-1 2-6-1-2-4-11-20-5-9-5-8-3-2h-9l-6 4-2 4v11l4 20 4 30 3 12 2 4 7 1 5-5v-9l-2-7-1-9v-15l5 4 7 11 6 11 5 6 2 1h7l6-5 2-4 5-32 2-6 3-1 3 10 5 21 3 4 8-1 3-5-1-11-3-11-4-31-4-18-3-5-2-1z" fill="#558BB4"/>
<path transform="translate(1065,78)" d="m0 0 4 1v168l-4 5h-2v2l-13 5-19 7-12 4-16 6-46 16-7 3h-7l-5-4-1-2-1-10v-31l6 6 1 26 1 8h8l29-10 12-4 7-3 10-3 17-6 18-7 13-5 5-5 1-3 1-37 1-5 1-55-1-59-3-7z" fill="#DD8B7B"/>
<path transform="translate(256,861)" d="m0 0 5 2 3 5 6 25 3 29 3 12 1 1v7l-4 6-5 2-5-1-4-5-5-22v-2h-3l-4 15-4 19-6 7-9 1-4-2-7-11-6-11-5-5-1 1v14l2 12v9l-2 4-2 1h-8l-5-6-3-10-2-19-4-24-2-9v-14l3-5 6-3h11l4 4 8 14 13 23 5 3 4-21 2-8 3-23 3-7 7-6zm-4 2-5 3-4 5-3 8-3 23-4 23-3 7-4-1-6-9-8-15-8-12-3-6-3-3h-10l-6 5-2 7 2 12 3 15 3 24 3 16 3 6 2 1h6l3-4v-10l-3-21v-11l4 2 8 11 8 15 4 5 2 1h7l5-4 3-12 6-30 1-6 3 1 4 15 3 15 4 8h6l4-5v-8l-2-7-3-24-6-31-3-7-2-2z" fill="#558BB4"/>
<path transform="translate(893,922)" d="m0 0h2l-2 8 7 1-1 3 1 37 6 2-3 2h-8v13h3l1-2 3 1-2 2-1 50-3 3-7 1-1-1-1-115z" fill="#4C5162"/>
<path transform="translate(985,111)" d="m0 0h1l1 10 2 49 2 21 2 9 2 10-1 36-3 5-12 6-3 1h-14l-4-4 1-3v-130l-1-5-10-1v-1h11l3 6 1 8v74l1 14 2 18 1 13 1 4 8-1 8-4 2-4v-26l-1-77z" fill="#B67165"/>
<path transform="translate(1038,88)" d="m0 0h1l3 96 3 19 1 6h2v12l-1 7-3 5-9 4-14 4-7-1-3-7v-19l1-8v-99l-3-10 4 1 2 10v24l2 9v15l1 18 2 55v3l9-1 5-2h3l2-5v-33l-1-30z" fill="#AB6F63"/>
<path transform="translate(169,727)" d="m0 0h6l4 16 5 25v8l-12 5-11 3-4-1 1-4v-15l-3-26v-5l10-5z" fill="#0A5095"/>
<path transform="translate(986,101)" d="m0 0 3 1-3 8v29l1 86v17l-3 5-8 4-8 1-2-5-2-26-1-8-1-11v-75l-2-10-1-3h4l2 8 1 10 1 4v23l1 7 2 44v36l5 1 5-3h2l1-30-1-19 1-39-1-12-1-18 1-21z" fill="#AF574E"/>
<path transform="translate(1042,840)" d="m0 0h8l1 1v22l-1 25v58l-1 11-3 5-5 1-1-1v-46l1-3h4l1-6h1v-8l-8-2-4 4-3 1-2-2 8-5v-51l1-3z" fill="#474545"/>
<path transform="translate(800,662)" d="m0 0 3 1-10 4-9 4-4 4v10l3 14 3 29 3 9 3 16 2 4-3-1-2-5-3-13-2-1-2 5-7 13-3 3-8 10-8 7-12 6-5 1h-19l-8-3-6-4 1-2 12 6 5 1h11l12-3 11-7 7-7 8-13 4-10 1-16-4-16-5-10-8-7-10-4h-12l-15 4-13 8-8 9-6 10-3 14v13l2 10 6 12-1 2-4-5-5-13-1-4v-17l5-16 8-11 7-7 5-3 2-4 12-5 10-3 13 1 10 4 11 9h3l-1-10-1-4 1-9 5-4z" fill="#43789D"/>
<path transform="translate(867,638)" d="m0 0 7 2 5 8 2 10v9l2 4 4 1 6-5-1 6-7 14h-4l-2-6-2-12-2-18-3-8-2-1h-7l-5 5 1 12 3 21 1 13 2 11 1 19-3-3h-2l-4 12-8 7-9 6-12 6-18 6-11 4-6-1-4-5 1-4 2 5h12l32-12 10-6 5-6 4-8 1-4v-13l-3-8-7-5-1-4 1-3v-17l-2-5-10-6h-12l-8 2h-8l3-2 16-5 7-1 10 4 5 5 3 12 1 7 1 4v8l4 2v2l4-1-1-2v-13l-1-3-1-15-2-7v-9l4-6 3-2z" fill="#27659D"/>
<path transform="translate(659,535)" d="m0 0h7l6 3v2l4 2 10 13 8 10v2h2l2 6h2l6 11 7 10 2 4v7l-3 3-8 1-4-1v-2h-3l1-2 7 1 5-4-2-10-5-6v-2h-2l-7-11-12-16-11-14-6-3h-9l-6 4-4 7-5 24-6 30-4 13-4 4h-5l-18-13-8-5-2-2v-8l1-2h2l1-4 8-11 8-13v-5l-1-1h-7l-8 4-7 7-7 10-2-4 8-10 8-8 7-2h11l3 4-1 7-4 7-9 14-6 8v5l5 5 5 3 8 6 5 2 5-3 4-13 2-9 1-9 4-14 2-14 4-10 6-5z" fill="#28669D"/>
<path transform="translate(408,808)" d="m0 0h6l2 2-1 6-6 11-3 5h-2l-2 5-4 7-1 6 7 8 12 11 11 9 4 6-1 5-5 3-7-1-17-13-11-9-6-1-6 8-1 3v8l2 8v9l-5 5-7-1-4-8-2-16-3-17-4-29 1-10 4-2h6l3 4 3 15 2 5 5-2 6-7 9-15 7-11zm-2 5-6 7-6 12-7 11-8 8v2l-6 1-3-3-2-6-3-14-4-3-3 3v11l3 31 3 9 2 18 3 5 4 1 3-2v-9l-2-10v-7l7-11 1-1h7l6 4 3 3h2v2l8 6 9 7 2 1h8l1-1v-5l-4-5-11-9-9-8h-2l-1-3-5-5-3-7 4-9 3-4v-2h2l8-13 1-4z" fill="#81AFCC"/>
<path transform="translate(499,1314)" d="m0 0 3 3v281l-1 2h-3l-1-85 1-188z" fill="#464548"/>
<path transform="translate(336,653)" d="m0 0h12l10 4 5 4 1 6-3 4-4 1-17-5h-9l-9 3-5 3-6 7-4 8-1 4v16l3 10 8 7 2 1h17l8-4 6-5 3-5h2l1-5 4-8 2-1h8l2 6-4 10-4 7h-2l-2 4-8 7-14 7-11 2h-9l-13-4-9-8-4-8-3-12v-15l3-10 6-9 9-9 13-8zm2 2-15 5-11 7-8 7-7 7-5 10v20l4 13 6 8 6 4 8 2h21v-2l6-2 10-7 1-3 4-2 3-4v-2h2l5-9v-5l-4-1-4 4-4 10-2 1-1 3-9 6-10 3h-14l-8-4-6-8-2-7v-19l3-10 7-9 3-3 13-4h7l13 4h9l1-1v-5l-5-4-5-2z" fill="#81AFCB"/>
<path transform="translate(561,756)" d="m0 0 1 2-5 17-8 18-4 10-5 8-4 1-2-1-4-20-3-19-4-4h-6l-3 8v9l5 27 1 3 3 24 3 9 4 3 6-1 5-4 5-11 6-16 6-15 7-18 2-1 4 2 4 13 5 27 4 4 9-1v-11l-5-25-3-23-1-4v-8l2 4 3 12 3 21 4 21v11l-1 3-4 2h-9l-5-4-7-32-1-3-4 1-12 32-6 13-5 9-6 5h-8l-4-2-4-8-3-20-4-25-2-13v-15l3-5 2-1h10l4 4 5 30 2 4h3l7-14 13-32z" fill="#558BB4"/>
<path transform="translate(1039,83)" d="m0 0 2 1-2 4v75l1 37v24l-3 5-13 4-4-1-1-3-2-60-1-17v-13l-2-7v-26l-2-8-11-2v-1h11l2 1v2h2l3 4 1 11 1 31 1 11v46l1 6v11l2 9 5 1 4-1 1-10v-11l-1-2v-21h2l-1-10v-12l1-28v-12l-1-21 1-14z" fill="#AF574E"/>
<path transform="translate(1165,726)" d="m0 0h3v2l-10 3-48 18-13 4-23 8-26 9-38 13-20 7-19 7-17 6-51 17-38 13-9 3-3-1 10-4 9-3-2-2 40-13 43-15 74-25 20-7 72-24 19-7z" fill="#939FA7"/>
<path transform="translate(735,699)" d="m0 0h12l6 4 8 9 2 5 1 6v16l-3 10-6 8-7 6-10 4h-14l-8-4-5-8-4-13v-10l3-12 6-9 8-7 8-4zm1 3-8 4-7 6-5 12v24l6 12 4 2h12l9-4 5-5 1-4h2l4-16v-11l-7-14-6-5z" fill="#29679D"/>
<path transform="translate(888,162)" d="m0 0 3 1v2h2l1 5h2l4 6 4 7 2 9-1 7 2 7v3h-2v2h2l1 11 2 3-2 16 1 16h-2v12l-1 5h-2v7l-3 6-1 5-1 3-3 3-1 4h-2v2h-2v3l-6 6h-2l-1 2-4 1-2 2v-4l4-5 9-17 8-21 3-11 1-7 1-22-3-35-6-21-5-11z" fill="#C0483F"/>
<path transform="translate(822,658)" d="m0 0h12l10 6 3 6v17l-1 7 5 2 4 5 2 6v13l-3 8-5 8-9 7-12 5-24 9h-10l-3-4-4-20-2-5-3-29-3-14v-10l5-5 9-4 10-4 1-1h10l-2 2-24 9-3 4-1 6 3 12 5 39 2 7 1 12h10l17-6 14-6 8-6 6-8 2-5v-18l-4-5-6-3-2-3 1-6 3-7v-7l-4-8-7-4-11-1z" fill="#558BB4"/>
<path transform="translate(355,822)" d="m0 0h13l7 10 1 2 4-1 8-9 1 2-9 13-4 3-4-5-4-10-2-2h-13l-2 3v14l3 20 2 18 4 18 1 7-4-1-4-5-15-25-4-7-4-4-11-17-4-2h-8l-5 3-4 1-3 6-2 15-4 16-3 23-4 13-2 9h-3l-3-7-2-12-3-27-4-13v-2h2l5 14 2 14 1 18 2 6h2l5-19 2-22 2-9 2-5 2-14 6-8 5-3 2-1h13l7 8 10 15 4 7 7 12 5 8v2l4 1-3-25-4-21-1-7v-12l4-5z" fill="#27669D"/>
<path transform="translate(413,804)" d="m0 0 5 2 2 5-7 14-4 6-9 14 1 7 5 6 10 8 4 3v2l4 2 8 7 2 3v6l-5 4h-11l-12-9-10-8-9-6-4 2-3 7v10l2 10-1 6-3 5-3 2h-6l-5-3-2-5-3-17-3-16-3-24-2-10v-8l3-4 3-1h9l4 5 3 13 3 3 4-4h2l2-5 12-20 6-7 7-4zm-5 4-8 7-12 19-7 11-4 4-4 1-2-5-3-15-3-4-9 1-2 5 1 13 5 35 2 9 1 11 4 8 7 1 5-5v-9l-2-8v-8l5-9 2-2 6 1 11 9 14 11 6 3 7-1 3-3-1-6-6-7-11-9-13-12-3-4 1-6 4-7 2-5h2l4-7 6-11-1-5-1-1z" fill="#558BB4"/>
<path transform="translate(828,705)" d="m0 0 9 1 4 4 2 6-2 7-4 5-8 5-14 4h-7l-5-5-1-7v-8l5-4 15-6z" fill="#2A679D"/>
<path transform="translate(337,651)" d="m0 0 14 1 10 4 5 4 1 8-4 5-3 1h-7l-9-4-12-1-9 3-9 7-4 8-2 6v16l4 10 6 5 3 1h12l6-2 8-6 4-5 5-12 5-5 7-1 5 3 1 2v7l-7 14-9 10-9 7-14 5-6 1h-13l-11-4-6-4-7-9-4-10-1-4v-21l5-12 9-11 8-6 10-6 13-4zm-1 2-16 5-14 9-10 10-6 12-1 5v15l4 15 6 8 6 5 13 4h9l11-2 16-8 8-8v-2h2l6-11 2-8-2-4h-8l-4 4-3 7v3h-2l-6 8-8 5-3 1h-17l-6-4-5-6-2-8v-16l4-10 4-6 5-5 8-3 4-1h9l17 5 5-2 2-3-1-6-6-5-9-3z" fill="#558BB4"/>
<path transform="translate(1028,352)" d="m0 0 4 1-34 12-29 10-36 12-44 15-77 27-36 12-31 11-36 12-38 13-27 9-32 11-4-1 5-3 35-12 20-7 46-15 31-11 57-19 26-9 91-31 36-12 47-16z" fill="#AA7063"/>
<path transform="translate(253,865)" d="m0 0 6 2 2 6 3 21 3 17 4 24v6l-2 2-5-1-4-16-1-13-6-16-2-1-5 4-2-2v-23l5-8z" fill="#B6D7DE"/>
<path transform="translate(1032,1281)" d="m0 0h11l1 5-1 83h-9l-2-1v-35l2-4 3-1 1-16-7-2v-26z" fill="#48494A"/>
<path transform="translate(681,589)" d="m0 0 4 2 9 11-2 1-3-2v-3l-14-1-8 3h-3l-2 4h-3l-3 9-3 10-3 6-4 4-16 3-2 4-6 2-8-2-11-6-3-5-15-10-7-2-5 1 4-4 10 1 14 7 11 9 4 2 9 1 2-4h2v-2h2v2l10-4 5-8 2-12 6-7 25-9z" fill="#29679D"/>
<path transform="translate(198,138)" d="m0 0h37l10 2-3 3-9 1-24 1v3l-20 2-2 1h-42l-15-1-1-2-5-1 3-2 11-1 41-3 9-2z" fill="#D66F65"/>
<path transform="translate(420,138)" d="m0 0h35l26 4 9 2 20 2 11 3 25 2v1l-34 3h-6v-1l-18-3-29-2-12-2-35-3-3-4z" fill="#DD8B7B"/>
<path transform="translate(872,934)" d="m0 0 3 1-1 8-9 6-21 12-2 13h-1l-1-6-2 4-5 1-2-1h-8l-15 7-5 1-2-2v-5l5-4 23-12 22-12 18-10z" fill="#262526"/>
<path transform="translate(1047,602)" d="m0 0 5 2-2 9-2 4-2 16-4 7-4 1v2l-6 4v25l-7 3-7-1-2-3-2-18-2-5-5-5-11 1 3-2 2-1h7l6 5 3 12 1 12 1 2h10l-2-17-6-19-4-4h-15l-11 2 3-3 9-2h13l5 2v2h2l1 5h5l2-10 3-14 4-8 5-3z" fill="#4A80A7"/>
<path transform="translate(926,627)" d="m0 0 2 3 3 17 3 15 3 25 3 10-1 7-6 4-5-1-3-3-2-7-5-38-2-5-3 3-5 12-9 23-5 14-6 15-5 5-5 2-5-1-3-3-2-9-5-32-4-25-1-8 2-5 3-2h6l4 4 3 19 3 20 1 6 5-3 8-17 4-15 2-4h2l2-7 1 3-9 24-6 15-4 6-5 3-3-5-2-9-3-28-3-8-5-1-2 1-1 8 4 25 4 21 3 20 2 3h7l5-5 4-11 9-24 12-29 3-5 4 1 3 11 4 28 3 13 1 1h7v-9l-2-6-4-30-3-16z" fill="#81AFCC"/>
<path transform="translate(1063,281)" d="m0 0 4 1-11 4-38 13-41 14-36 12-43 15-43 14-26 9-37 13-30 10-19 7-18 6 2-4 5-2h5v-2l10-3 9-3 15-6 16-5 8-3 16-5 8-3 12-4h4v-2l23-7 8-3 29-10 36-12 16-5 10-4 18-5 16-6 16-5 8-3 17-6 11-3 16-6z" fill="#BE433B"/>
<path transform="translate(253,859)" d="m0 0h6l5 3 2 4v10l-2-4-3-8-5-2-8 2-6 5-3 7-4 28-5 22-1 2-4-1-6-9-7-12-6-11-5-9-2-1h-11l-6 3-2 4v16l3 12 3 19 2 19 3 10 4 6-4-1-4-7-6-43-1-7-3-1-2-7v-14l5-10 7-3h9l7 3 10 15 3 4v3h2l6 11 3-3 4-18 3-25 7-8 6-3z" fill="#26659D"/>
<path transform="translate(1039,896)" d="m0 0 9 2v10l-2 2-1 3h-4l-1 3-2-5-10 2-31 16-7 5h-2l-1 6h-2v-3l-4-1v-11l1-3 6-1 6-2 33-17 10-2z" fill="#222121"/>
<path transform="translate(330,650)" d="m0 0h24l7 3 5 3 4 6 1 7-3 5-4 3h-14l-8-4-9-1-10 3-3 3h-2l-6 12-1 4v16l4 6v2l4 2 4 1v2l10-1 6-3h2l1-3h2v-2h2v-2h2l1-5 4-3 2-4 1 2-4 10-7 8-7 5-5 1h-12l-7-4-4-4-3-9v-16l5-13 9-8 6-3 8-1 9 1 9 4h7l5-3 1-7-1-3-10-6-11-2h-7l-15 4-10 5-11 8-6 7v-3l1-5h2l2-4 10-7 16-6z" fill="#2E6A9D"/>
<path transform="translate(461,604)" d="m0 0h8l5 3 3 5 5 15 2 3 4 2-7 1-5-8-3-16-2-1h-12l-4 4-1 10 5 30 5 19 2 4v5l-7 1-3-2-4-8-8-10-3-3-14-20-6-7-4-2v-2l-11 1-6 4-5 9-3 9-4 22h-2l1-14 4-16 4-10 6-5 5-2h10l8 4 2 4h2l4 5v2h2l4 5 5 9 1 3h2l5 7 1 4 6-1-2-6-2-19-3-14-1-12 2-7 4-3z" fill="#25649D"/>
<path transform="translate(460,608)" d="m0 0h10l4 4 4 15 3 5 2 2-12 5-4 4-1 2v26l-2-3-4-16-3-17-2-12v-10z" fill="#568BB3"/>
<path transform="translate(407,628)" d="m0 0h10l6 4 8 10 11 16v2l3 1 9 11 2 6-5-5-7-8-9-11-5-4-10-14-5-3h-6l-5 5-2 5-7 34-5 8-4 14-3 15v3h9l5-3 4-11 2-4v11l-5 8-7 2h-10l-2-2-1-8 5-9 3-15 2-9 5-27 5-13 4-6z" fill="#568BB3"/>
<path transform="translate(260,681)" d="m0 0h9l1 7h-2v2l-12 5-25 9-6 4-2 5-6-5-8-4h-2l2-4 8-4 39-14z" fill="#B6D6DC"/>
<path transform="translate(353,1269)" d="m0 0 16 1h186l21 1 1 6-1 28-2 1v-33l-6 1h-71l-40-1h-89l-12-1-3-1z" fill="#535659"/>
<path transform="translate(459,607)" d="m0 0h12l3 2-1 3-3-3h-10l-4 4v13l4 18 3 17 3 10 1 1 1 11 3 4h7l5-3 2-5-1-11-5-17 5-3 12-4 7-3 3 1-1 2h-3v2l-10 3h-3v2l-2 1v9l1 14v7l-8 8-10 2-6 1-2 5-3 2h-8l-8-4-9-8-11-1-5-1 4-3 10-5 5 5 8 11 6 2 5-1 6-4-1-4-4-7h9l-4-13-4-15-5-30 1-10z" fill="#3974A4"/>
<path transform="translate(308,845)" d="m0 0 9 1 4 5 15 24 6 11 8 13 6 9v6l-4 4h-6l-8-7-6-9-9 1-18 7-4 6-3 18-4 4-7 1-3-5 1-9 5-24 3-18 4-16 2-13 4-7zm1 2-5 3-3 5-1 4-1 13-7 28-1 14-4 13v6l1 2 7-1 2-3 1-13 3-7 1-3 5-1 18-7h7l5 5 7 9 1 1 7-1 1-5-6-11-9-15-5-9-15-24-4-3z" fill="#81AFCC"/>
<path transform="translate(445,820)" d="m0 0h1l1 23 4 10 5 6 5 2h13l10-4 6-7 6-12 5-5 5 1 2 3-1 7-4 10-8 10-8 7-11 5-3 1h-17l-12-6-7-8-4-7-2-10v-20h2l2 21 4 12 5 8 10 6 3 1h14l9-3 4-1v-2l8-6 8-11 1-5-2-3-7 11-8 7-8 3h-15l-8-4-5-6-3-5-2-10v-17z" fill="#81AFCC"/>
<path transform="translate(1e3 1325)" d="m0 0h11v60l-1 2h-9l-1-1z" fill="#434140"/>
<path transform="translate(563,749)" d="m0 0 3 1-5 7-15 37-6 10-4-1-2-4-5-30-1-3h-12l-3 2-1 3v18l5 27 3 24 4 10v2l12 2-4 2-8-2-5-7-2-7-3-27-5-16v-8l-1-8 2-12 4-6 11-1 5 1 3 5 4 19 1 2 3-1 6-10 7-16 7-11z" fill="#23639D"/>
<path transform="translate(605,559)" d="m0 0h5l1 5-5 10-7 9-3 5h-2l-2 6v6l5 5 15 10 2 2-7-1-10-7-10-9-6-4-5 1-4 3 2-5 13-18 7-10 8-7z" fill="#84B1CC"/>
<path transform="translate(210,1051)" d="m0 0h7l-3 2-20 7h-3v2l-31 11-36 12-20 6-35 12-42 14-17 5-10 3 1-3 36-12 38-13 27-9 29-10 32-11 15-5z" fill="#9B9191"/>
<path transform="translate(522,798)" d="m0 0h7l1 10 3 12 8 1 3 4-1 12-4 8-3 3h-7l-3-5-2-10-3-26v-5l-2-1z" fill="#B7D8DF"/>
<path transform="translate(666,716)" d="m0 0h6l4 6 2 12 2 26v10h-3l-5-12-4-8-5-5-3-7v-15l4-6z" fill="#B7D8E0"/>
<path transform="translate(307,843)" d="m0 0h8l6 4 11 18 6 10 4 7 12 20 5 7-1 6-4 5h-9l-7-6-7-10h-6l-12 5-8 3-3 8-2 14-6 7-7 1-5-5v-14l5-17 4-27 4-14 2-13 3-5zm1 2-6 3-4 9-2 14-4 16-4 25-4 16 1 9 2 2 7-1 4-4 3-18 4-6 21-8h6l8 11 6 5h6l4-4v-6l-6-9-9-15-5-9-13-21-6-8z" fill="#558BB4"/>
<path transform="translate(785,1248)" d="m0 0 4 2 1 2 1 15v47l-1 54-1 15-1 2h-3v2l-2-1 1-4 1-75 1-29 2-18v-7z" fill="#545969"/>
<path transform="translate(651,1424)" d="m0 0 2 1 2 9 1 24v75l-3 4-5 2-13 1h-15l-7-1v-1l29-1 7-3 1-4v-89z" fill="#43413F"/>
<path transform="translate(448,816)" d="m0 0h1v23l2 9 4 7v2l5 2h14l8-4h2l6-12 3-8 6-5 6-1 4 2 2 7-2 8-6 12-9 10-9 6-10 4-4 1h-13l-10-3-9-7-5-6-5-12-1-9v-13l1-3h2l1 20 3 12 7 10 5 4 9 4h17l12-5 9-7 8-10 5-12-1-7-5-1-5 5-7 14-6 6-9 3h-13l-6-3-6-7-3-9v-25z" fill="#558BB4"/>
<path transform="translate(657,542)" d="m0 0h8l7 6 10 14 8 11v2h-8l-6 2-1-4-4-6-7-8-7 1-2 4-3 1v-12l1-7z" fill="#B7D7DE"/>
<path transform="translate(739,686)" d="m0 0h12l10 4 9 8 5 10 4 16-1 16-6 14-8 11-10 9-10 5-9 2h-11l-10-3-9-6-6-8-5-12-1-7v-13l3-14 9-14 7-7 12-7zm-4 2-11 4-10 6-8 8-9 16-2 11v9l3 15 5 10 7 7 10 5h17l11-4 10-7 8-9 8-16 2-10v-11l-3-14-6-11-7-6-8-3z" fill="#81AFCC"/>
<path transform="translate(933,192)" d="m0 0h1l2 38 1 49 1 10 5 5h7l19-7 22-8 18-6 18-7 15-5 19-7h2v-2l5-5v-54h2l1 9v45l-3 5-9 6-35 12-30 11-18 6-17 6-8 3-7 1-6-2-3-5-1-6-1-25z" fill="#B56F63"/>
<path transform="translate(1013,145)" d="m0 0h1l1 52 2 7v11l1 17 1 3 11-2 9-4 2-4 1-30 2 4 2 10h2v12l-1 7-3 5-9 4-14 4-7-1-3-7v-19l1-8z" fill="#DA8D7D"/>
<path transform="translate(824,672)" d="m0 0 4 2 1 3v10l-4 5-13 5h-8l-4-5-1-3v-7l5-4z" fill="#23639D"/>
<path transform="translate(581,769)" d="m0 0h2l2 8 1 19 5 24v7l-3 2-5-1-2-9-5-25-3-10-2-5-6-1 4-2 10-4z" fill="#B9DAE2"/>
<path transform="translate(1162,725)" d="m0 0h6l-3 2-21 7-28 10-43 14-29 10-41 14-62 21-14 5h-5l3-2 12-5 12-4 9-4 15-4 26-9 7-3 20-6 38-13 16-5 17-6 20-7 11-3 10-4 14-4z" fill="#4A5061"/>
<path transform="translate(742,683)" d="m0 0 13 1 8 4 9 10 4 8 3 9 2 9v11l-4 13-6 12-12 13-15 8-5 1h-19l-8-3-6-4 1-2 12 6 5 1h11l12-3 11-7 7-7 8-13 4-10 1-16-4-16-5-10-8-7-10-4h-12l-15 4-13 8-8 9-6 10-3 14v13l2 10 6 12-1 2-4-5-5-13-1-4v-17l5-16 8-11 7-7 5-3 1-2 6-3 9-1v-2z" fill="#558BB4"/>
<path transform="translate(987,146)" d="m0 0h1l2 37 3 17 2 10-1 36-3 5-12 6-3 1h-14l-4-4 1-3 1-13 2 4 3 9 1 2 4 1 10-3 7-5 1-3v-33l-1-39z" fill="#DA8F7F"/>
<path transform="translate(879,1431)" d="m0 0h22l1 1v9l-5 3-1-2h-15l-29-1-3-1v-8z" fill="#242222"/>
<path transform="translate(754,1423)" d="m0 0 3 1 3 15v59l-1 34-1 3-6 1 2-9z" fill="#494B4B"/>
<path transform="translate(354,1139)" d="m0 0 2 1-2 3-1 125-3-1-2-21v-92l1-11h2l1-3z" fill="#43403E"/>
<path transform="translate(712,1428)" d="m0 0h1v11h2l1 30v56l-1 9-3 3-3 2-11 1h-25l-3-1v-2h34l5-2 1-2 1-99z" fill="#464547"/>
<path transform="translate(994,784)" d="m0 0 3 1-7 2v3l-19 7-17 6-51 17-38 13-9 3-3-1 10-4 9-3-2-2 40-13 43-15z" fill="#9FB1A6"/>
<path transform="translate(784,737)" d="m0 0 3 1 2 7v6l-3-4h-4l-4 8-4 7-10 11-8 5-9 4-8 2h-20l-10-4-9-7-4-3-1 3 1 7v11l-3 7-5 4-3-1v-2l5-4 1-2h2v-11l-3-14-1-8 3-3 5 8 4 5 5 3v2l5 2 5 3 4 1h19l9-3 11-6 7-7 7-10 2-1 7-14z" fill="#27659D"/>
<path transform="translate(260,679)" d="m0 0h12l2 2v6l-5 5-12 5-26 9-2 3h-2v10l1 3 8-1-3 2h-6l-4-8 1-7 7-5 33-12 4-1v-2h2l-1-7-13 2-42 15-6 4 1 17 6 33v6l-3-4-2-10-4-18-2-14-1-1v-10l6-5 14-4 33-12z" fill="#558BB4"/>
<path transform="translate(605,738)" d="m0 0h7l6 8 5 14v5l-3 1-8-1-1 4h-4l-6-12-1-3v-12z" fill="#B7D8E0"/>
<path transform="translate(186,705)" d="m0 0 4 1 4 4 6 45 2 9h2l1 2h7l-1-6h-2v-7l1-3h2l4 12 2 10 4 3 10 1v1l-10 2-6 8-2-3-5-11-8-4-2-5-9-45-3-9-9-1 4-3z" fill="#2E6BA1"/>
<path transform="translate(734,697)" d="m0 0h12l8 4 7 6 4 7 2 13v12l-4 11-6 8-9 7-11 4-7 1-9-2-7-4-5-7-4-11v-20l5-12 8-9 11-6zm1 2-9 4-6 4-7 8-4 8-2 9v10l4 13 5 8 8 4h14l10-4 10-9 5-10 1-5v-16l-2-9-6-8-7-6-2-1z" fill="#81AFCC"/>
<path transform="translate(933,957)" d="m0 0 8 1-1 5-11 9-22 12-4 3-4-1-1 3-3-1-1-2v-9l1-2 11-2 19-10z" fill="#232223"/>
<path transform="translate(1123,261)" d="m0 0m-2 1 5 1-3 2-30 10-17 6-9 3-32 11-41 14-59 20-29 10-10 3-2-1 12-5 85-29 36-12 38-13h2v-2l25-8z" fill="#D76F65"/>
<path transform="translate(594,920)" d="m0 0h6l-4 3-26 9-18 6-14 5-13 4-20 7-7 2v2l-29 10-15 5-15 3 1-2h2v-2l35-12 27-9 16-6 69-23z" fill="#A78476"/>
<path transform="translate(74,433)" d="m0 0h1l2 173 2 4 7 4-3 5-12 5-8 1 3-2 9-4 1-3-2-5-2-19z" fill="#D18071"/>
<path transform="translate(1066,200)" d="m0 0h1v44l-3 5-6 5-31 11-20 7-25 9-24 8-8 3-7-1-3-4-1-31 2-3 1 1 1 26 1 8h8l29-10 12-4 7-3 10-3 17-6 18-7 13-5 5-5 1-3 1-37z" fill="#A8B49E"/>
<path transform="translate(811,661)" d="m0 0 3 1-26 10-3 4-1 6 3 12 5 39 2 7 1 12h10l17-6 14-6 8-6 6-8 2-5v-18l-4-6 4 2 3 5v17l-4 9-7 8-10 6-21 8-11 4h-6l-3-3-5-24-1-2-4-32-2-11v-8l4-5 12-5z" fill="#81AFCC"/>
<path transform="translate(953,622)" d="m0 0h6l3 7 3 20 5 35 3 8h7l5-4 1-2v-7l-5-19v-7l4-4h5l-3 3-1 8 3 9 1 8v9l-4 6-7 3h-7l-4-5-5-16-2-31-3-14v-3l-8-1-4-1z" fill="#2C699D"/>
<path transform="translate(917,625)" d="m0 0h7l1 3 1 22 4 20 1 7v14l-3-1-3-12-2-20-4-10-3-3-5-1 1-9 3-8z" fill="#FDFDFD"/>
<path transform="translate(844,180)" d="m0 0h10l3 2-11 1v2l-7 3-1 2-7 3-3 6-2 7-3 1 1 6h-2v2h2v2h-2v2h-3v5h-2l1 3-1 2 2 1-1 7-2 1 1 8h-2l1 4v11l3 6v6 3l2 1 1 4-4-1v2h2l1 5 3 1-1 7-5-5-4-13-2-16 1-21 3-17 6-19 6-11 6-7z" fill="#C04D44"/>
<path transform="translate(656,538)" d="m0 0h9l7 4 13 16 13 19 3 4v2h2l7 10-1 3-6-9-8-8-4-7-12-16-8-11-6-4h-8l-5 3-4 11-6 27-7 35-3 7-6 2 1-4-3-1 5-2 4-11 6-29 4-18 2-11 4-7 5-4z" fill="#558BB3"/>
<path transform="translate(1066,595)" d="m0 0h6l2 1v5l-3 3-2 10-2 13-4 4-7 1-1-1v-11l3-17 4-6z" fill="#B7D8DF"/>
<path transform="translate(1e3 598)" d="m0 0 2 1-1 5-4 5-12 6-2 3 2 6 1 4 31-1 4 4-5-1h-13l-11 3-9 5h-6l-3-4-2-7v-11l2-2 14-4 10-5z" fill="#25649D"/>
<path transform="translate(936,618)" d="m0 0 2 4 10-1 8-2h5l3 4 3 12 3 24 4 15 1-1v-20l3-5 2-1-1 6v10l3 15v8l-2 3h-6l-3-5-3-17-5-35-3-10-7-1v2l-7 2h-9l-2-2z" fill="#B6D7DE"/>
<path transform="translate(642,191)" d="m0 0h1l1 229 1 5h5l-2 2-8 1 1-136z" fill="#B2BDA7"/>
<path transform="translate(601,732)" d="m0 0h11v1l-12 2-6 4-3 8v8l5 16 2 11 1 9v17l-2-2-3-8-2-9-3-23-3-9-7-9-8-2v-1l9-2h7l7-8z" fill="#24649D"/>
<path transform="translate(667,898)" d="m0 0 3 1-27 10-21 7-23 8-24 8-58 20-15 5-4-1 15-6 20-7 17-5 14-5 29-10 5-2-1-2 36-12 5-2 3 1h3z" fill="#A8B49E"/>
<path transform="translate(735,699)" d="m0 0h12l6 4 8 9 2 5 1 6v16l-3 10-6 8-7 6-10 4h-14l-8-4-5-8-4-13v-10l3-12 6-9 8-7 8-4zm3 1-9 3-8 5-7 10-3 9-1 14 3 13 5 8 6 3h14l9-3 9-8 5-9 1-7v-17l-4-9-7-9-6-3z" fill="#558BB4"/>
<path transform="translate(937,614)" d="m0 0 3 1-5 3-1 6 3 3h5v-2l4 1-4 3-8 1-1 3 2 6v4h2l3 16 1 16 2 11 1 2 1 14-3 6-6 3-4-1h3v-2l5-4 1-2v-6l-3-9-4-35-4-15-2-9-2-6 4 1 3-7z" fill="#2C699D"/>
<path transform="translate(820,669)" d="m0 0h8l5 5 1 2v9l-4 6-9 6-14 5h-6l-5-6-2-6v-8l7-6zm4 3-20 6-5 4v7l4 7 1 1h8l13-5 4-5v-10l-2-4z" fill="#81AFCC"/>
<path transform="translate(863,643)" d="m0 0h6l4 4 3 19 3 20 1 6 5-3 8-17 4-15 2-4h2l2-7 1 3-9 24-6 15-4 6-5 3-3-5-2-9-3-28-3-8-5-1-2 1-1 8 4 25 4 21 3 20 2 3 7 1v2l-6 1-4-2-2-4-5-33-4-24-2-15 2-5z" fill="#81AFCC"/>
<path transform="translate(1068,593)" d="m0 0 7 1 2 2-1 7-4 8-1 7h-2l-1 10-4 4-4 2h-6l-1-1v-21h-2l-3 10h-1l1-8 3-7v-3l-4-1-8 3-4 8-4 20-2 4-3 1-2-1-1-5 4 1 2-5 2-9 3-12 5-6 5-2h9l3 2 1-4 4-1 1-3zm-2 2-5 3-4 8-2 14v11l5 1 6-3 2-6 2-17 2-4 2-1v-5l-2-1z" fill="#3D77A6"/>
<path transform="translate(338,655)" d="m0 0 12 1 8 4 2 2v5l-1 1h-9l-13-4h-7l-13 4-7 8-4 4-1-4-2-1 7-7 12-7 9-4z" fill="#B6D7DD"/>
<path transform="translate(316,149)" d="m0 0 6 1-1 2h-2v2l-10 4-7 2-3 2v2l-18-1-26-3v-1l19-2 16-4 22-3z" fill="#DC8C7C"/>
<path transform="translate(72,729)" d="m0 0h6l6 7 7 13v5l-2 2-6-1-10-8-6-8v-6l3-3z" fill="#B4D5DB"/>
<path transform="translate(243,878)" d="m0 0h1l1 20 2 1 4-4 4 4 5 14v7h-1l-4-15-3-6-2-1-3 11-3 16-4 24h-1l-1-15-4 2-1 2h-5l5-4 4-12 3-20 2-19z" fill="#A7C8C7"/>
<path transform="translate(893,922)" d="m0 0h2l-2 8 7 1-1 3 1 37 6 2-3 2h-8v13h3l1-2 3 1-3 3-1 8-3 1-4-8-2-5 1-3 2-9 1-7v-10l2-9v-6l-3-2-2-6-1-1v-6z" fill="#4A4948"/>
<path transform="translate(517,767)" d="m0 0h6l5 5 3 19v5l-5-5-6-1-1 4-1 8h-2l-3-17v-9l3-8z" fill="#84B1CD"/>
<path transform="translate(1042,840)" d="m0 0h8l1 1v22h-1l-1-20-3 6 3 1v15l-3 2-2-1-1 11-1 7-2 10h-1l-1-19v-31l1-3z" fill="#595F6C"/>
<path transform="translate(353,824)" d="m0 0 4 1-4 2-1 2v8l4 23 2 17 4 19 2 11 3 3 8 2v1h-9l-4-2-2 4-5 6-9 1-6-4-7-9-4-4-10 2 1-2 5-2h6l4 5 7 9 3 2h9l4-6-1-6-7-10-9-15-8-14 1-2 9 15 13 21 5 3-6-25-4-33-1-5v-14z" fill="#43789D"/>
<path transform="translate(665,711)" d="m0 0h10l4 2 4 7 3 11h3l5-15 2-2-1 6-3 10v17l4 13 5 8 5 5-5-2-5-6-4-7-2 3 2 13 2 8v9l-2 2-2-15-3-11-2-23-5-23-3-6-3-2-9-1z" fill="#43789D"/>
<path transform="translate(829,709)" d="m0 0 5 1 1 1v7l-3 7-5 4-7 3-5-1-4-6-1-5 6-5z" fill="#094F95"/>
<path transform="translate(298,847)" d="m0 0h2l-3 9-2 14-3 9-4 27-5 17v14l4 4 7-1 5-4-2 4-4 3h-14l-5 4 2-5v-7l-3-9-3-21-2-16-2-8v-5l2 3 2 5 4 35 3 10 2 1 7-28 3-22 4-17 1-9z" fill="#42779D"/>
<path transform="translate(303,841)" d="m0 0m-3 1h3l-2 4-4 4-2 4-2 15-4 16-3 23-4 13-2 9h-3l-3-7-2-12-3-27-4-13v-2h2l5 14 2 14 1 18 2 6h2l5-19 2-22 2-9 2-5 2-14 6-8z" fill="#23639D"/>
<path transform="translate(914,809)" d="m0 0h4v2l-38 13-36 12-73 25-4-1 8-4 16-5 20-7 23-8 31-11 21-6 26-9z" fill="#4B5061"/>
<path transform="translate(411,649)" d="m0 0h5l7 9 1 4v7l-9 4-8-1-3-1 1-10 3-9z" fill="#81AFCC"/>
<path transform="translate(520,587)" d="m0 0h6l5 5 3 6 3 19 3 16 2 10v9l-2-3-4-14-3-24-4-16-7 1-3 5-1 17h-1l-2-9-3-7 1-8 3-5z" fill="#5B90B6"/>
<path transform="translate(659,535)" d="m0 0h7l6 3v2l4 2 10 13 8 10v2h2l2 6h2l6 11 7 10 2 4v7l-3 3-8 1-4-1v-2h-3l1-2 7 1 5-4-2-10-5-6v-2h-2l-7-11-12-16-11-14-6-3h-9l-4 1 2-4z" fill="#2C689D"/>
<path transform="translate(401,986)" d="m0 0 2 2-15 6-20 7-36 12-17 6-40 13-7 3-3-1 6-4 37-12 26-9 14-5 33-11z" fill="#A37972"/>
<path transform="translate(144,118)" d="m0 0 25 3 14 1 13 2 26 2 32 2 19 2 20 3 17 2 3 1-1 2-4-1-23-2-42-5-36-2-56-6-15-1v-1l7-1z" fill="#BD443C"/>
<path transform="translate(913,623)" d="m0 0 3 1-3 1-2 5-6 13-4 10h-2l-4 16-7 16-4 6-4 1-3-10-4-31-2-7h-8l-3 2-1 5 4 28 3 15v6h-1l-5-27-3-20v-6l4-5 2-1h7l4 3 2 7 3 26 2 9h4l7-15 3-13 10-23 6-10z" fill="#558BB4"/>
<path transform="translate(736,872)" d="m0 0h5v2l-13 4-4 2h-3v2l-48 16-12 3-20 7-3-1 3-1v-2l69-23z" fill="#A88C7C"/>
<path transform="translate(890,924)" d="m0 0 2 1-2 2v6l2 4 1 3 3 2v9l-2 7v9l-3 18h-1l-1 31h-1l-1-89z" fill="#586272"/>
<path transform="translate(657,540)" d="m0 0h8l6 4 7 9 14 19 3 4-1 2-4-2-3-6-12-16-7-9-3-2h-8l-4 5-7 31-5 24-4 8-1-4 6-30 6-26 4-8z" fill="#82B0CC"/>
<path transform="translate(1167,305)" d="m0 0 1 4-16 4-22 8-26 9-17 6-10 4-13 2-29 10-3-1 25-9 41-14 63-21z" fill="#79554E"/>
<path transform="translate(893,1331)" d="m0 0h1v9l3-1 3 1 1 3 2-1v28h-9l-2-2v-29z" fill="#474647"/>
<path transform="translate(530,590)" d="m0 0 4 3 4 16 2 14 5 30v10l-1 2h-2v2l-2 1h-13l-4-3-3-14-2-6-3-4-3 1-2-1-4-1 10-3h5l3 6 3 19 2 3 6 1 8-2-2-21-3-15-5-30-3-6z" fill="#28679F"/>
<path transform="translate(666,772)" d="m0 0 3 1 3 9 3 12 3 5 8 1-2 3-7 1-6-3-2-11-2-2-3 13-2 6-7 6h-14l-1-2h11l4-3h2l3-9 4-23z" fill="#23639D"/>
<path transform="translate(70,119)" d="m0 0h13l36 4 17 1 4 2v2l2 1h-15l-20-1-1-1-33-3-3-1z" fill="#A8B49E"/>
<path transform="translate(1040,604)" d="m0 0h10l-1 6-4 13-2 9-2 4-5 1-2-3 1-9 1-16z" fill="#B5D6DC"/>
<path transform="translate(1049,842)" d="m0 0h1v46l-2 10-2 1-7-2-4 4-3 1-2-2 9-6 2-13 3-15h2l2-2 1-14-4-1 3-6z" fill="#454342"/>
<path transform="translate(606,556)" d="m0 0h7l2 2-1 7-7 11-8 11-2 4h-2v10l5 4 11 7 10 7-3 1-4-2v-2l-5-2-16-11-2-3v-6l3-6 3-3 7-10 5-8 1-7-8 1-9 8-10 15-6 8h-2l2-4 7-11 8-11 7-7z" fill="#558BB4"/>
<path transform="translate(578,616)" d="m0 0 7 2 16 11 2 4-4-1-7-4-3-2-5-1-2-2-3 7v11h-2l1 6-2 6-5 4h-8v-1l7-2 4-2-1-14-1-3v-12l1-5z" fill="#26659D"/>
<path transform="translate(659,725)" d="m0 0h1l1 13 4 8 6 7 4 9 2 8 2-2-1-27h1l2 12 1 15 4 16v6l-1 2h-5l-3-7-3-18-6-13-8-8-2-10z" fill="#A7C8C7"/>
<path transform="translate(785,1248)" d="m0 0 4 2 1 2 1 15v47l-1 54-1 15-1 2h-3v2l-2-1 2-6 2-35 1-26v-66z" fill="#444240"/>
<path transform="translate(955,922)" d="m0 0h1v9l-2 10-7 14-5 6-1-3-3 1-4-2 2-1 2-4 5-9 2-13 3-3 5 1 1 2z" fill="#4A4B4D"/>
<path transform="translate(924,622)" d="m0 0 3 1 3 8 4 19 2 10 3 27 3 9v6l-5 6-2 1h-7l-4-4-2-5-3-22-2-16-1-3-4 1 1-5 3-2 3 6 5 38 3 8 3 2 5-1 3-2 1-7-3-10-4-30-4-19-2-11z" fill="#548AB3"/>
<path transform="translate(566,799)" d="m0 0 4 2 4 18 3 12 4 2h13v2l-6 1h-10l-4-3-2-7-3-11-2-4-3-1-1 4-6 15h-2l-1 7-3 4-2 4h-2l3-9 10-25 5-10z" fill="#23639D"/>
<path transform="translate(1009,97)" d="m0 0 4 1 2 10v24l2 9v15l1 18 1 22-2 8-2-4-1-3-2-90z" fill="#D27166"/>
<path transform="translate(327,904)" d="m0 0 5 2 8 11 6 4 9-1 7-9 13 2v2l-11 1-8 6-4 2h-7l-6-3v-2l-4-2-4-6v-2h-8l-3 1-2-1v2l-10 3-4 8-2 14-4 6-4 1 4-5 2-8 2-14 3-5 11-4zm48 7 2 1-2 1z" fill="#23639D"/>
<path transform="translate(401,152)" d="m0 0 23 1 13 4 18 2v1l-28 3h-10l-3-3-9-2-6-2z" fill="#DC8C7C"/>
<path transform="translate(291,1026)" d="m0 0m-3 1h3v2l-17 5-28 10-51 17-4-1 23-8-1-2 21-7 29-10 5-1-2 2 9-3z" fill="#9FB1A6"/>
<path transform="translate(571,119)" d="m0 0 13 1v1l-36 3-22 3-25 2-27 1-19 2h-5l1-3 9-1 51-3 24-3 13-1z" fill="#BD453C"/>
<path transform="translate(260,681)" d="m0 0h9l1 7h-2v2l-12 5-25 9-6 4-2 5-2-1 1-4 5-5 16-7 15-5 6-4v-2h-7l-29 10-15 5-5 4v-3l6-4 42-15z" fill="#81AFCB"/>
<path transform="translate(800,662)" d="m0 0 3 1-10 4-12 4-2 2v14l2 10v12l-1-2-3-1-3-6-8-9-6-4-5-2-13-1-10 1v2l-11 3-4 1 3-3 10-4 10-3 13 1 10 4 11 9h3l-1-10-1-4 1-9 5-4z" fill="#23639D"/>
<path transform="translate(647,787)" d="m0 0 5 2 2 6-1 8-2 4-2 1h-6l-3-3-4-14 1-3z" fill="#B7D8E0"/>
<path transform="translate(355,822)" d="m0 0h13l7 10 1 2 4-1 8-9 1 2-9 13-4 3-4-5-4-10-2-2h-13l-2 3v14l3 20 1 8v9l-2-2-4-27-2-10v-12l4-5z" fill="#23639D"/>
<path transform="translate(936,248)" d="m0 0 4 5v13l1 21 4 4 9-1 11-4 17-6 6-1v2l-28 10-10 4h-7l-5-4-1-2-1-10z" fill="#DD8C7B"/>
<path transform="translate(602,564)" d="m0 0 4 1-2 6-8 11-7 11-1 7-10-5 1-3h2l2-4 10-15 7-8z" fill="#A7C8C7"/>
<path transform="translate(577,614)" d="m0 0 10 1 14 7 11 9 4 2 9 1 2-4h2v-2h2v2l2 1h-3l-2 4-5 3h-7l-9-4-22-15-7-2-5 1z" fill="#5F93B7"/>
<path transform="translate(465,613)" d="m0 0 3 1 3 6 3 14 1 3-7 4-3 4-3-11-1-8v-10z" fill="#B8D9E1"/>
<path transform="translate(311,871)" d="m0 0 5 2 8 12-1 4-9 4h-5l-2-2v-11l3-8z" fill="#558BB4"/>
<path transform="translate(850,1406)" d="m0 0h45v1l-9 1-2 2-18 2-15 3v1h-5l-1-2v-7z" fill="#444242"/>
<path transform="translate(791,853)" d="m0 0 3 1-1 1 4 1-25 9-18 6-29 10-4-1 12-5 8-1v-2l-2-1 26-9z" fill="#A1A79C"/>
<path transform="translate(187,881)" d="m0 0h9l3 2h-11v2l-6 3-2 4v16l3 12 3 19 2 19 3 10 4 6-4-1-4-7-6-43-1-7-3-1-2-7v-14l5-10z" fill="#25649D"/>
<path transform="translate(352,1145)" d="m0 0h1v101h-1l-1-21-1-3v-72z" fill="#636876"/>
<path transform="translate(826,704)" d="m0 0h10l5 3 4 6-1 9-5 7-8 5-15 5h-11l-4-5-1-4v-13l5-5 17-7zm2 1-16 6-8 4-2 2v8l2 9 4 3h7l14-4 9-6 4-5 1-7-4-8-5-2z" fill="#81AFCC"/>
<path transform="translate(662,564)" d="m0 0 5 1 6 7 1 7-10 4-7 1-1-1v-8l5-10z" fill="#457A9E"/>
<path transform="translate(886,1407)" d="m0 0h11l-1 6-3 1v2h-42l-2-2 19-3 16-2z" fill="#1F1C1B"/>
<path transform="translate(953,621)" d="m0 0h7l3 7 3 19 3 20 3 17 2 4h6l1-2v-8l-3-15v-10l3-7 12-1-3 2-8 3-1 2v12l4 15v8l-5 4-5 1-5-5-3-17-5-37-3-10-6-1z" fill="#81AFCC"/>
<path transform="translate(96,721)" d="m0 0 6 1 5 5 6 11 1 5-1 3-7 1-8-7-6-7-2-3v-6zm-2 4-2 2 1 4 7 8 5 5h3l-1-6-7-11z" fill="#81AFCC"/>
<path transform="translate(1065,78)" d="m0 0 4 1v114l-1 5h-1v-53l-1-59-3-7z" fill="#BFA69C"/>
<path transform="translate(146,718)" d="m0 0 3 1-6 4-2 3-1 53h-1l-1-7-1-17-3-12v-18l1-2h2l1-3z" fill="#29679D"/>
<path transform="translate(515,764)" d="m0 0h12l4 4v5l-2-4-1-3h-12l-3 2-1 3v18l5 27 3 24 4 10v2l12 2-4 2-8-2-5-7-2-7-3-27-5-16v-8l-1-8 2-12z" fill="#43789D"/>
<path transform="translate(548,579)" d="m0 0h9l4 6 3 16-3-3-4-8-8-2 3 24v5l-2-4-4-17-2-7 1-7z" fill="#85B2CD"/>
<path transform="translate(600,734)" d="m0 0h5l-4 2-6 5-1 4v8l5 23 5 37 4 9 1 1 9 1-3 2-7-1-3-2-6-15-2-26-2-12-5-15v-8l3-8 5-4z" fill="#43789D"/>
<path transform="translate(408,630)" d="m0 0h9l8 7 9 14h-3l-11-15-5-3h-6l-5 5-2 5-7 34-4 4 1-11 5-22 4-12 4-5z" fill="#81AFCC"/>
<path transform="translate(691,757)" d="m0 0 4 4 5 8 6 4v2l5 2 5 3 4 2-4 1-10-5-9-8-2 3 1 7v11l-3 7-5 4-3-1v-2l5-4 1-2h2v-11l-3-14-1-8z" fill="#26659D"/>
<path transform="translate(406,813)" d="m0 0 5 1-3 8-6 9h-2l-6 12-1 7-4-3-4 1-6 5 2-4 4-5 5-5 9-16 3-5z" fill="#A7C8C7"/>
<path transform="translate(58,623)" d="m0 0m-1 1m-4 1h10l-2 2-60 20-1-4 3-2 7-1 9-4 16-5 3-2 13-3z" fill="#CB5950"/>
<path transform="translate(1063,281)" d="m0 0 4 1-11 4-38 13-41 14-18 6-4-1 2-2 18-5 16-6 16-5 8-3 17-6 11-3 16-6z" fill="#BF433B"/>
<path transform="translate(464,610)" d="m0 0h5l3 3 4 18 2 5h-4l-2-5-3-14-2-3-5 2v10l3 17v16h-1l-5-27-1-3v-15l3-3z" fill="#82AFCB"/>
<path transform="translate(669,328)" d="m0 0h2v57l-1 21 1 5 6 3v1h-9l-3-9 2-14 1-25v-12l1-20z" fill="#AF574E"/>
<path transform="translate(459,607)" d="m0 0h12l3 2-1 3-3-3h-10l-4 4v13l4 18 3 17 3 10 1 1 1 11 2 4-6 1v4l-2-1-1-4-4-7h9l-4-13-4-15-5-30 1-10z" fill="#43789D"/>
<path transform="translate(550,617)" d="m0 0h3l4 26 2 10h7l6-3-1-10-4-12 2-5 3-5h1v17l2 11-1 6-6 4-11-1-4-9v-10l-3-15z" fill="#6799BB"/>
<path transform="translate(948,114)" d="m0 0h11l3 6 1 8-1 74-1 33h-1l-1-114-1-5-10-1z" fill="#BC7A6C"/>
<path transform="translate(651,1429)" d="m0 0h1l1 24 1 68-2 10-2 2v-92z" fill="#59606B"/>
<path transform="translate(831,653)" d="m0 0 9 3 6 4 3 9 1 10-1 1-1 10 2 4 4 3-1 2-7-5-1-4 1-3v-17l-2-5-10-6h-12l-8 2h-8l3-2 16-5z" fill="#23639D"/>
<path transform="translate(522,1432)" d="m0 0h1l1 51v45l1 6h-2l-1-2-1-18v-81z" fill="#585B5A"/>
<path transform="translate(558,783)" d="m0 0h2v7l-4 11h-2l-1 6-2 5h-2l-1 7-4 15h-1v-9l-2-4-8-1-1-4 2 1v2h8l2-4h2l1-6 3-6 5-17z" fill="#A6C7C7"/>
<path transform="translate(583,753)" d="m0 0 4 4 3 9 3 23 3 11 2 9v19l-2 4-5 1 4-2v-14l-6-33-2-15-2-6v-4h-2z" fill="#45799E"/>
<path transform="translate(991,197)" d="m0 0 2 3 2 10-1 36-3 5-12 6-3 1h-14l-4-4 2-3 3 4h9l13-4 4-2v-2l2-1z" fill="#A9B59F"/>
<path transform="translate(658,715)" d="m0 0 2 1-4 7-4 22-5 25-2 5-5-1-5-6-8-14-6-11-3-4 1-2 7 10 8 13 5 9h5l4-16 4-26 4-9z" fill="#43789D"/>
<path transform="translate(250,928)" d="m0 0h4l5 18 3 4 6 1 4-2 7-7h14v2l-10 2-5 2-8 5-6 1-5-2-4-8-1-4-3-1-3 10h-2l1-9z" fill="#23639D"/>
<path transform="translate(983,873)" d="m0 0 2 1-3 8-4-3 1 5 3 3v5 4 7l-1 6-1 5h-2l-2 3-1-24v-14l4-4z" fill="#4D5363"/>
<path transform="translate(714,691)" d="m0 0h3l-1 3-8 6-7 8-4 6h-2l-3 10-3 8-3-1-5-14-2-4-14-2v2h-2l1-3h15l6 7 2 6 3-1 3-8 7-11 7-7z" fill="#23639D"/>
<path transform="translate(75,1097)" d="m0 0h8l-2 2-18 6-11 4-17 5-18 6-17 5 1-3 36-12z" fill="#9B9796"/>
<path transform="translate(1e3 629)" d="m0 0h13l5 2v2h2l5 17 2 5 1 6v9l-1 3-5 2-7-1-2-3-2-18-2-5-5-5-11 1 3-2 2-1h7l6 5 3 12 1 12 1 2h10l-2-17-6-19-4-4h-15l-11 2 3-3z" fill="#81AFCC"/>
<path transform="translate(674,592)" d="m0 0 2 1-8 4-10 4-4 7-4 14-4 6-3 2-8 1-2-2 8-3 5-8 2-12 6-7z" fill="#5D91B7"/>
<path transform="translate(566,793)" d="m0 0 4 1 3 11 5 24 4 3 9 1v1h-10l-5-3-4-15-3-15h-4l-14 34-5 11h-2l2-6 7-16 11-29z" fill="#43789D"/>
<path transform="translate(1012,206)" d="m0 0h1l1 20 2 10 1 1h7l13-4h3v-2l4-4 1-20 1 2h2v12l-1 7-3 5-9 4-14 4-7-1-3-7v-19z" fill="#A8B49E"/>
<path transform="translate(828,705)" d="m0 0 9 1 4 4 2 6-2 7-4 5-5 2 6-8 1-2v-8l-3-4h-10l-13 5-7 4-1 5 3 12h9l9-1-3 2-8 2h-7l-5-5-1-7v-8l5-4 15-6z" fill="#558BB4"/>
<path transform="translate(991,595)" d="m0 0h6l3 3-1 7-6 4-9 3v-2l11-5h2l1-7-11 2-14 5-7 1v2l-19 6-11 5 1 5 5 1v2l-5 1-4-4 1-6 6-4 11-4 20-7 8-3z" fill="#86B2CA"/>
<path transform="translate(341,521)" d="m0 0h2l1 10v10l-1 2h-8l-2-5 1-10 2-5z" fill="#DC8C7C"/>
<path transform="translate(391,992)" d="m0 0m-3 1h3v2l-36 12-28 10-33 11-3-1 9-4 24-8 35-12 20-7z" fill="#A8B49E"/>
<path transform="translate(310,866)" d="m0 0 5 2 7 8 3 7 2 4-3 4-11 4h-7l-2-2v-13l3-11zm1 5-3 5-1 4v11l2 2 8-1 6-3 1-4-8-12z" fill="#81AFCC"/>
<path transform="translate(1044,767)" d="m0 0h5l-1 3-38 13-16 6h-4v-2l7-2v-2l36-12z" fill="#A3988C"/>
<path transform="translate(667,898)" d="m0 0 3 1-27 10-33 11-6-1v-2l20-7 14-5 3 1h3z" fill="#A09991"/>
<path transform="translate(804,661)" d="m0 0h7l-3 2-19 7-6 4-1 2v8l4 25 2 18 3 10v6l-2-1-3-11-2-12-2-20-3-14v-10l5-5 9-4 10-4z" fill="#558BB4"/>
<path transform="translate(823,661)" d="m0 0h10l6 4 3 6-1 5h-3l-7-8-2-1h-10l-6 2h-4v-3l10-4z" fill="#FDFDFD"/>
<path transform="translate(911,660)" d="m0 0 1 3-4 11-17 45-6 8-4 2h-8l-5-5-2-11v-13h1l3 22 1 4 7 1 7-3 5-10 7-18 6-16 6-17z" fill="#558BB4"/>
<path transform="translate(86,675)" d="m0 0m-4 1h4v2l-11 4-13 4-40 13-15 6-7 1v-2l21-7 22-8 36-12z" fill="#4B5061"/>
<path transform="translate(244,864)" d="m0 0 2 1-6 7-3 17-2 15-5 22-1 2-4-1-6-9-7-12 1-3 11 18 3 2 4-17 2-8 3-23 4-8z" fill="#43789D"/>
<path transform="translate(882,702)" d="m0 0h5l1 3-2 9-4 6-5 1-3-4v-9l3-3z" fill="#FDFDFD"/>
<path transform="translate(360,727)" d="m0 0v3l-5 6-7 4-13 5-9 1h-12l-10-4-5-4-1-4 14 7 4 1h13l12-3 9-4 8-6z" fill="#2D6A9D"/>
<path transform="translate(186,705)" d="m0 0 4 1 4 4 3 23 1 21h-1l-7-35-3-9-9-1 4-3z" fill="#3F78A5"/>
<path transform="translate(824,670)" d="m0 0 5 2 2 3v11l-4 6-8 4-12 4h-5l-4-5-1-3v-10l4-4 19-7zm0 2-20 6-5 4v7l4 7 1 1h8l13-5 4-5v-10l-2-4z" fill="#558BB4"/>
<path transform="translate(521,1312)" d="m0 0h2l1 12v23l-1 36h-2l-1-13v-14l1-21v-15l-1-4z" fill="#434141"/>
<path transform="translate(517,771)" d="m0 0h7l4 20-8-1-2 1-2-5v-13z" fill="#B8D8DF"/>
<path transform="translate(82,674)" d="m0 0m-3 1h3v2l-35 12-24 8-19 7h-4l1-3 14-5 11-3z" fill="#AA7063"/>
<path transform="translate(93,717)" d="m0 0h7l7 3 8 11 4 8 1 8-2 4-5 2h-7l-2-4 9-1 2-1v-7l-6-12-4-6-10-2h-3z" fill="#2C699D"/>
<path transform="translate(401,986)" d="m0 0 2 2-15 6-20 7-29 10-4-1 1-2 36-12z" fill="#A87266"/>
<path transform="translate(169,727)" d="m0 0h6l4 16 5 25v8h-2l-2-9-3-9-1-10-1-5-2-12-8-2z" fill="#3570A3"/>
<path transform="translate(997,598)" d="m0 0h1l-1 7-11 5h-2v2l-10 3-1 1v11l3 9 1 1h6l6-3 13-3h15v2h-13l-16 5-9 2-5-2-3-6-1-7v-8l5-5 17-7 3-1z" fill="#B7D8DF"/>
<path transform="translate(519,584)" d="m0 0m-3 1 11 1 3 2-1 2-3-2-9 1-3 5-1 8 3 7 1 2v8l-8 4v-2l4-4-4-10-1-10 4-9z" fill="#2A689D"/>
<path transform="translate(821,679)" d="m0 0 5 2v6l-6 5-3 1h-9l-1-2 1-2h2l-1-4 6-2v-3z" fill="#094F95"/>
<path transform="translate(594,920)" d="m0 0h6l-4 3-26 9-18 6-14 5-7 1 2-3 38-13 18-6z" fill="#A87267"/>
<path transform="translate(914,658)" d="m0 0 3 1 2 13 3 18 2 13 2 4 9 2-3 1v2h-6l-4-4-4-14-2-22v-8h-3l-3 3 2-7z" fill="#2E6A9D"/>
<path transform="translate(265,710)" d="m0 0h9l3 3v7l-6 7-4 2h-8l3-2 7-2 1-6-2-5-10 1-8 2 4-4z" fill="#497DA1"/>
<path transform="translate(865,650)" d="m0 0 4 1 3 13v15l-1 2h-2l-3-8-2-15v-7z" fill="#FDFDFD"/>
<path transform="translate(251,919)" d="m0 0 3 1 4 15 2 9 5 5 8-1-2 3-6 1-5-3-3-6-3-12v-3h-4l-1 8-5 19-2 1 5-25 3-11z" fill="#43789D"/>
<path transform="translate(95,719)" d="m0 0 10 2 9 14 2 5v7l-7 3-7-3v-2l-4-2-9-12-1-2v-6l4-3zm1 2-6 3v6l6 8 8 8 7 1 2-1 1-6-5-10-5-7-5-2z" fill="#558BB4"/>
<path transform="translate(353,1269)" d="m0 0 16 1 100 1-2 2h-99l-12-1-3-1z" fill="#43403E"/>
<path transform="translate(953,622)" d="m0 0h6l3 7 3 20 5 35 1 5-2-1-4-20-1-9-2-3-1-13-3-14v-3l-8-1-4-1z" fill="#3974A4"/>
<path transform="translate(1068,193)" d="m0 0h2l1 9v45l-3 5-9 6-14 5-2-1 4-3 14-5h2v-2l5-5z" fill="#AF6F63"/>
<path transform="translate(1e3 642)" d="m0 0 6 1 5 6 1 10h-1l-3-10-2-4h-8l-11 4-7 2-1 2v7l5 19v7l-5 6-2 1h-7l-2-4 6 2 6-3 1-1v-8l-4-15v-12l4-4z" fill="#5489B2"/>
<path transform="translate(178,916)" d="m0 0h2l3 13 5 37 3 5v2l6 2h6v2h-9l-5-3-3-4-3-14-2-20-3-13z" fill="#23639D"/>
<path transform="translate(407,628)" d="m0 0h10l6 4 8 10 11 16v2l3 1 9 11 2 6-5-5-7-8-9-11-12-18-6-5h-12z" fill="#578DB5"/>
<path transform="translate(625,113)" d="m0 0h19l3 2-37 3-15 2h-18l2-1 1-2 2 1 16-2z" fill="#BA483F"/>
<path transform="translate(406,625)" d="m0 0h10l4 2-3 1h-11l-6 4-5 9-3 9-4 22h-2l1-14 4-16 4-10 6-5z" fill="#23639D"/>
<path transform="translate(209,696)" d="m0 0 2 1-5 5v9l4 13 5 28v6l-3-4-2-10-4-18-2-14-1-1v-10z" fill="#4E82A5"/>
<path transform="translate(314,1154)" d="m0 0h3v151h-1l-1-147z" fill="#6A5E66"/>
<path transform="translate(364,701)" d="m0 0 4 1v5l-5 9h-2l-2 4-3 4h-2l-2 4h-3l5-7-5 2 4-4 1-3 2-1 5-12z" fill="#A7C8C7"/>
<path transform="translate(936,618)" d="m0 0 2 4 10-1 8-2h5l3 4 3 12 2 16v8l-2 2-4-29-3-10-7-1v2l-7 2h-9l-2-2z" fill="#B6D7DD"/>
<path transform="translate(717,692)" d="m0 0 3 1-10 7-7 8-6 10-3 14v13l2 10 6 12-1 2-4-5-5-13-1-4v-17l5-16 8-11 7-7z" fill="#558BB4"/>
<path transform="translate(903,646)" d="m0 0 1 3-9 24-6 15-4 6-5 3-3-5-2-9v-8h2l3 17 5-3 8-17 4-15 2-4h2z" fill="#81AFCC"/>
<path transform="translate(431,678)" d="m0 0 4 2 10 14 6 2-2 2-5-1-10-9-11-1-5-1 4-3z" fill="#336FA1"/>
<path transform="translate(414,656)" d="m0 0 4 2 4 5 1 7-6 2h-6l-1-1v-8l3-6z" fill="#487CA0"/>
<path transform="translate(888,162)" d="m0 0 3 1v2h2l1 5h2l3 5v12h2l1 5 1 7-1 18h-1l-2-21-6-21-5-11z" fill="#B45E54"/>
<path transform="translate(980,789)" d="m0 0 3 1-15 6-72 24-4-1 47-16z" fill="#81AFCC"/>
<path transform="translate(1066,598)" d="m0 0h4l-1 5-3 12-1 7-3 2-2-1v-17l3-6z" fill="#FDFDFD"/>
<path transform="translate(542,579)" d="m0 0 2 1-1 2v8l7 25 4 21v5l-2-1-3-10-4-19-3-12-2-10v-6z" fill="#43789D"/>
<path transform="translate(661,559)" d="m0 0 5 1 8 9 3 6-1 3h-2l-3-8-5-5-5 1-4 9-1 8h-3l-1-4 4-14z" fill="#81AFCB"/>
<path transform="translate(1123,261)" d="m0 0m-2 1 5 1-3 2-30 10-17 6h-9l2-2 26-8z" fill="#CD5D54"/>
<path transform="translate(158,731)" d="m0 0h2v2h-2l2 9 1 12v28l4 1-7 1-1-3 1-2v-15l-3-26v-5z" fill="#457DA8"/>
<path transform="translate(331,657)" d="m0 0 3 1-3 3 11 2v1h-12l-13 4-7 8-4 4-1-4-2-1 7-7 12-7z" fill="#A7C8C7"/>
<path transform="translate(300,859)" d="m0 0h1l2 11 4-1-2 11-1 12h-1l-1-7h-4l-2 9-2 3 1-8 4-17z" fill="#A7C8C7"/>
<path transform="translate(556,764)" d="m0 0 1 3-13 31-4 6-4-1-2-4-3-18v-8h1l4 20 2 5h2l6-12 7-16z" fill="#43789D"/>
<path transform="translate(774,750)" d="m0 0 1 3-6 9-9 10-10 6-6 3-5 1h-19l-8-3-6-4 1-2 12 6 5 1h11l12-3 11-7 7-7 8-12z" fill="#558BB4"/>
<path transform="translate(68,728)" d="m0 0h11l7 8 6 10 1 9-5 3-7-2-12-11-4-6v-7zm4 1-4 2-1 2v6l6 8 10 8 6 1 2-2-1-7-6-11-6-7z" fill="#558BB4"/>
<path transform="translate(650,540)" d="m0 0 2 1-5 6-2 6-3 18-5 23-5 21-3 5-7 1-4-4 8 2 4-6 5-21 4-20 3-12 2-12 4-6z" fill="#43789D"/>
<path transform="translate(1099,329)" d="m0 0h5l-2 2-23 8-18 4-26 9-3-1 25-9 23-8 10-2z" fill="#7A5956"/>
<path transform="translate(824,672)" d="m0 0 4 2 1 3v10l-4 5-2-1 3-3 1-3v-7l-1-2h-8l-13 4-2 2 1 10 5 3 9-1-2 2-4 1h-8l-4-5-1-3v-7l5-4z" fill="#43789D"/>
<path transform="translate(117,1081)" d="m0 0m-3 1 3 1-10 4-23 8-35 12-11 3v-2l38-13 23-8 8-3z" fill="#4A5062"/>
<path transform="translate(994,784)" d="m0 0 3 1-7 2v3l-19 7-17 6-9 3-6 1 1-3 10-3 23-8 10-3v-2z" fill="#A8AA95"/>
<path transform="translate(72,729)" d="m0 0h6l6 7 7 13v5l-2 2-6-1-10-8-6-8v-6l3-3zm0 2-3 3v5l6 8 7 6h6v-6l-7-12-5-4z" fill="#81AFCC"/>
<path transform="translate(355,700)" d="m0 0 1 2-4 10-7 8-7 5-5 1h-12l-5-3 2-1 4 2 10 1 1-3 6-3h2l1-3h2v-2h2v-2h2l1-5 4-3z" fill="#2E6A9D"/>
<path transform="translate(844,180)" d="m0 0h10l3 2-11 1v2l-7 3-1 2-7 3-3 6-2 7-5 3 3-9 6-9 4-5z" fill="#BF4840"/>
<path transform="translate(666,772)" d="m0 0 3 1 3 9 3 12 3 5 7 1v1h-8l-4-4-4-15-3-3-4 23-4 6-1-2 3-7 4-23z" fill="#43789D"/>
<path transform="translate(862,684)" d="m0 0h1l3 16 2 21 3 6 2 1h8l6-4 4-5 1 4-8 7-2 1h-11l-5-3-1-5-1-19-2-11z" fill="#39719D"/>
<path transform="translate(212,693)" d="m0 0m-2 1h2v2l-6 3-2 2v10l2 6 2 14 3 13v6l-2-1-3-9-1-8-4-22v-9l5-5z" fill="#23639D"/>
<path transform="translate(606,574)" d="m0 0v3l-7 10-2 4h-2v10l5 4 11 7 10 7-3 1-4-2v-2l-5-2-16-11-2-3v-6l3-6 3-3 6-8z" fill="#558BB4"/>
<path transform="translate(602,564)" d="m0 0 4 1-2 6-8 11-4 1v2h-2v-5l6-11z" fill="#B6D7DD"/>
<path transform="translate(622,786)" d="m0 0 3 1 11 18 4 6-4-2-7-10-2-4-3-2-1 5 3 14v5l-4 4 1-5v-7l-3-10v-11z" fill="#43789D"/>
<path transform="translate(663,710)" d="m0 0m-3 1h3l-1 4-4 1-4 8-3 15-3 17-2 1 1-13 3-21 6-9z" fill="#23639D"/>
<path transform="translate(1066,200)" d="m0 0h1v44l-3 5-6 5-9 2 2-3 10-5 3-6 1-37z" fill="#A9B5A0"/>
<path transform="translate(708,764)" d="m0 0 7 3 8 4 10 1 5 1-3 3h-15l-8-4-4-4z" fill="#FDFDFD"/>
<path transform="translate(933,192)" d="m0 0h1l2 38-1 36h-1l-1-7z" fill="#AF796B"/>
<path transform="translate(366,822)" d="m0 0 4 2 6 10 4-1 8-9 1 2-9 13-4 3-4-5-4-10-2-2-9-1v-1z" fill="#27659D"/>
<path transform="translate(582,804)" d="m0 0 3 1 4 11 1 9-3 3-3-1-2-10-1-10z" fill="#B9DAE2"/>
<path transform="translate(406,627)" d="m0 0h11v1l-10 1-6 4-5 11-3 11-5 29-2 2v-9l5-27 3-9 5-9 5-4z" fill="#43789D"/>
<path transform="translate(1e3 644)" d="m0 0h6l5 5 3 10 1 1 1 11 3 3 10-1-3 3h-8l-5-3-2-16-3-6-8-3h-8l3-2z" fill="#3A74A3"/>
<path transform="translate(1047,602)" d="m0 0 5 2-2 9-3 9-3 12-5 5-4 1-3-1 1-13 2-13h1v12l-1 9 1 2h5l2-6 3-14 4-12h-7z" fill="#81AFCC"/>
<path transform="translate(461,604)" d="m0 0h8l5 3 3 5 5 15 2 3 4 2-7 1-5-8-3-16-2-1-12-1z" fill="#29679D"/>
<path transform="translate(591,1435)" d="m0 0h1l1 93-2 6h-2l1-7z" fill="#5A5B69"/>
<path transform="translate(351,1225)" d="m0 0h1l1 43-3-1-2-21 1-20z" fill="#43403E"/>
<path transform="translate(349,1103)" d="m0 0 2 1-5 3-11 4-9 3-10 3-7 2-6 1h-5l3-2z" fill="#505050"/>
<path transform="translate(255,678)" d="m0 0 5 1-4 2-35 13-9 2 2-4 27-9 11-4z" fill="#316C9D"/>
<path transform="translate(1038,88)" d="m0 0h1l2 70v20h-2l-1-17z" fill="#B88071"/>
<path transform="translate(256,129)" d="m0 0h10l27 4 17 2 3 1-1 2-4-1-23-2-33-4z" fill="#BA4840"/>
<path transform="translate(178,892)" d="m0 0h1l1 16 3 12 3 19 2 19 3 10 4 6-4-1-4-7-6-43-3-14z" fill="#43789D"/>
<path transform="translate(601,630)" d="m0 0 5 2 7 4 3 1h7l6-4 1-2 8-1h5l-2 2-9 2-4 6-6 2-8-2-11-6z" fill="#2C699D"/>
<path transform="translate(466,687)" d="m0 0 14 1v2l-10 2-6 1-2 5-3 2h-8l-2-1v-2l7-2 5-3h3v-4z" fill="#3671A2"/>
<path transform="translate(1042,607)" d="m0 0h4l-1 8-3 13-4 2-1-3 2-16 1-3z" fill="#FDFDFD"/>
<path transform="translate(291,1026)" d="m0 0m-3 1h3v2l-17 5-17 6-4-1-15 5-4-1 29-10 5-1-2 2 9-3z" fill="#99B2AE"/>
<path transform="translate(210,1051)" d="m0 0h7l-3 2-20 7h-3v2l-8 3-12 2 1-3 33-11z" fill="#A87A6D"/>
<path transform="translate(831,694)" d="m0 0h6l4 4 7 4 1 3-1 2-4-1-3-3-14-3 1-4z" fill="#FDFDFD"/>
<path transform="translate(1059,599)" d="m0 0 1 2-2 5-2 14v11l7-1 3-3 3-21 3-5 1 2-2 7-3 18-4 4-4 2h-6l-1-1v-9l3-19z" fill="#558BB4"/>
<path transform="translate(501,827)" d="m0 0h7l5 6-1 9-5 12-5 7v-3l7-14 1-8-2-5-4-1-7 2-4 5-3 8-1-3 3-8 5-5z" fill="#43789D"/>
<path transform="translate(414,686)" d="m0 0h5l-2 4-7 2-1 4h-2v10l-2 4h-2v-14l4-6z" fill="#2B69A0"/>
<path transform="translate(1067,340)" d="m0 0h6l-2 2-21 7-22 8-8 1 1-2z" fill="#484B56"/>
<path transform="translate(313,908)" d="m0 0h5v3l-10 3-4 8-2 14-4 6-4 1 4-5 2-8 2-14 3-5z" fill="#2C689D"/>
<path transform="translate(333,182)" d="m0 0 5 5 7 3-3 1-1 7-6 2-2-2z" fill="#DD8B7B"/>
<path transform="translate(662,564)" d="m0 0 5 1 6 7 1 7-3 1v-8h-2l-4-4-3 3-2 4v6l4 2-7 1-1-1v-8l5-10z" fill="#588DB5"/>
<path transform="translate(571,119)" d="m0 0 13 1v1l-36 3-20 2 1-3 16-2 19-1z" fill="#B84B42"/>
<path transform="translate(669,720)" d="m0 0 3 2v13l-2 2-4-1-2-4v-7l2-4z" fill="#FDFDFD"/>
<path transform="translate(1017,200)" d="m0 0h2l1 32 12-1v2l-6 2h-7l-2-3-1-26z" fill="#B06F63"/>
<path transform="translate(168,1065)" d="m0 0 5 1 7-1-3 2-27 9-7-1 2-2 18-6z" fill="#9C9F9C"/>
<path transform="translate(198,912)" d="m0 0 4 1 1 4 4 2 6 9 6 10 3 7-1 3-7-14-8-12-6-5h-2v17h-1l-1-8v-9z" fill="#A7C8C7"/>
<path transform="translate(191,893)" d="m0 0 5 1 2 3v7l-2 3h-5l-3-7 1-6z" fill="#FDFDFD"/>
<path transform="translate(144,118)" d="m0 0 25 3 14 1 10 2v2l-42-4-15-1v-1l7-1z" fill="#BC463E"/>
<path transform="translate(915,653)" d="m0 0 3 3 2 12 4 29 3 8 6 3v1l-7-1-4-8-3-22-2-16-1-3-4 1 1-5z" fill="#558BB4"/>
<path transform="translate(404,806)" d="m0 0 2 1-6 5-7 10-8 14-3 5h-2l-1 3-4 2-4-7v-5l2 3 4 4 8-10 10-16 6-7z" fill="#43789D"/>
<path transform="translate(308,690)" d="m0 0 1 4v16l3 1 3 5v2l4 2 4 1v2h9v2h-10l-9-4-3-3-3-9v-16z" fill="#2E6A9D"/>
<path transform="translate(822,208)" d="m0 0 2 3v2h-2v2h2v2h-2v2h-3v5h-2l1 3-1 2 2 1-1 7-2 1 1 8h-2l-1 2v-16l5-19z" fill="#C24B42"/>
<path transform="translate(1165,726)" d="m0 0h3v2l-10 3-32 12-8 1 1-2 19-7z" fill="#A47F76"/>
<path transform="translate(521,590)" d="m0 0 7 1 2 3-1 3v-2l-7 1-3 5-1 17h-1l-2-15v-7l4-5z" fill="#88B4CD"/>
<path transform="translate(499,842)" d="m0 0 2 1 1 5-4 7-6 8-3 3-2-1 5-6-1-2h-3l5-6z" fill="#A7C8C7"/>
<path transform="translate(534,610)" d="m0 0h2l3 19 3 14v9l-2-3-4-14-2-18z" fill="#6396B9"/>
<path transform="translate(937,614)" d="m0 0 3 1-5 3-1 6 3 3h5v-2l4 1-4 3-8 1-3 7h-1l-2-9-2-6 4 1 3-7z" fill="#316C9E"/>
<path transform="translate(585,615)" d="m0 0 9 3 11 7 7 6 4 2 6 1v1h-9l-16-10-11-8z" fill="#8FB9CD"/>
<path transform="translate(359,1393)" d="m0 0h1v42l1 10h-3v-51z" fill="#6E6F78"/>
<path transform="translate(550,617)" d="m0 0h3l4 26 1 12-3-3-2-6v-10l-3-15z" fill="#5C8EB0"/>
<path transform="translate(659,725)" d="m0 0h1l1 13 4 8 6 7 4 9 1 6-3-3-5-11-8-8-2-10z" fill="#A7C8C7"/>
<path transform="translate(935,237)" d="m0 0h1l1 42 1 10 5 6h-5l-3-5-1-6v-18z" fill="#D57167"/>
<path transform="translate(1070,153)" d="m0 0h2l1 13 1 34-2 2-1-11-1-25z" fill="#BF433B"/>
<path transform="translate(963,792)" d="m0 0m-5 1 7 1-3 2-35 12h-5l3-2 12-5 12-4z" fill="#44526A"/>
<path transform="translate(913,623)" d="m0 0 3 1-3 1-2 5-6 13-4 10h-2l-3 10-2 1 1-6 10-23 6-10z" fill="#3B75A4"/>
<path transform="translate(43,1109)" d="m0 0 4 1-20 7-17 5-10 3 1-3 33-11z" fill="#A09890"/>
<path transform="translate(413,653)" d="m0 0 4 1 7 8v7l-2-4-4-6-4-2-3 6v8l4 2-8-1v-7l3-9z" fill="#5B90B7"/>
<path transform="translate(578,616)" d="m0 0 7 2 7 5-2 1-8-4h-7v17l1 13-2 2-1-14-1-3v-12l1-5z" fill="#43789D"/>
<path transform="translate(807,715)" d="m0 0 3 1-3 1 2 8 2 4v3l4 1 17-3-3 3-12 2h-7l-3-3-3-10 1-5z" fill="#44799E"/>
<path transform="translate(1012,206)" d="m0 0h1l1 20 2 10 1 1 7 1v2l-7 1-4-2-2-6v-19z" fill="#ACB7A3"/>
<path transform="translate(93,114)" d="m0 0 20 2 23 1 7 2v1h-18l-30-3-3-2z" fill="#BC453D"/>
<path transform="translate(1165,1202)" d="m0 0 2 1-2 12-3 6-4-1-1-4 2-5 1-6 5-1z" fill="#604642"/>
<path transform="translate(868,827)" d="m0 0h6l-4 3-15 5h-2v2l-6 2h-7l4-4z" fill="#A4837A"/>
<path transform="translate(713,721)" d="m0 0 1 4-1 14 1 10 4 9v2l4 2 3 1 13 1v1h-14l-7-4-4-7-3-14 1-13z" fill="#43789D"/>
<path transform="translate(1034,614)" d="m0 0h1l-1 12-2 13 7-1 4-4 3-12 1 4-2 10-5 5-5 2h-4l-1-2 1-13z" fill="#558BB4"/>
<path transform="translate(1038,603)" d="m0 0h5l-5 4-3 7-4 20-2 4-3 1-2-1-1-5 4 1 2-5 2-9 3-12z" fill="#3872A2"/>
<path transform="translate(66,728)" d="m0 0 2 1-2 3v7l6 8 9 8 2 2-3 1-4-3v-2l-4-2-9-9-2-9z" fill="#316C9D"/>
<path transform="translate(822,658)" d="m0 0h12l8 5 4 8v12l-2 6 1 5 3 3-5-1-3-4 1-6 3-7v-7l-4-8-7-4-11-1z" fill="#81AFCC"/>
<path transform="translate(385,869)" d="m0 0 4 1 8 6 10 8 1 2-4-2-9-7-5-4h-5l-2 2-2 11 1 4v9h-1l-2-10v-10l4-8z" fill="#43789D"/>
<path transform="translate(791,853)" d="m0 0 3 1-1 1 4 1-20 7-5-1-6 2-4-1z" fill="#95A1A6"/>
<path transform="translate(742,683)" d="m0 0 13 1 8 4 1 2-6-2-4-2-15 1-15 4-7 1 4-3 8-2h3v-2z" fill="#4A7FA6"/>
<path transform="translate(819,656)" d="m0 0h16l6 3 6 7-1 4-2-5-10-6h-12l-8 2h-8l3-2z" fill="#467CA2"/>
<path transform="translate(1058,603)" d="m0 0h1l-1 24v2l7-1 2-16 2-3-1 14-3 7-5 2-5-1v-11z" fill="#81AFCC"/>
<path transform="translate(681,589)" d="m0 0 4 2 9 11-2 1-3-2v-3l-8-1-11-1 2-2 3-1 1-2z" fill="#437CA9"/>
<path transform="translate(1161,249)" d="m0 0 4 1-19 7-18 6h-2l2-4 13-4z" fill="#C8534B"/>
<path transform="translate(736,872)" d="m0 0h5v2l-13 4-11 4-9 3-4-1 9-4z" fill="#A97164"/>
<path transform="translate(576,789)" d="m0 0 2 3 4 10 1 2-1 4 2 19h5l1-7h1v7l-3 2-5-1-2-9-5-25z" fill="#A7C8C7"/>
<path transform="translate(815,713)" d="m0 0m-5 1 4 1-2 4-1 3 3 6 1 3 10-1v2l-11 2-3-2-4-9v-6z" fill="#23639D"/>
<path transform="translate(979,613)" d="m0 0 2 1-5 3-1 7 3 9v2l6 1-1 2h-6l-3-4-2-7v-11l2-2z" fill="#6699BD"/>
<path transform="translate(676,594)" d="m0 0m-3 1 3 1-9 4h-3l-2 4h-3l-1 3-3 2-3 11-1-4 3-11 4-5 10-4z" fill="#38719D"/>
<path transform="translate(532,828)" d="m0 0 5 1 1 8-3 5-4-1-1-1v-10z" fill="#FDFDFD"/>
<path transform="translate(820,750)" d="m0 0 3 1h-2v2l-13 5-9 3-6-1-4-5 1-4 2 5h12z" fill="#2C699D"/>
<path transform="translate(96,723)" d="m0 0 6 1 7 10 2 5-1 4-2 1-4-10-4-5v-2l-6-2z" fill="#B5D5D9"/>
<path transform="translate(581,769)" d="m0 0h2l2 8 1 19 4 19v5l-2-4-3-11-2-1v-20z" fill="#A7C8C7"/>
<path transform="translate(804,661)" d="m0 0h7l-3 2-19 7-6 4-1 2v15l-2-1-1-5v-10l5-5 9-4 10-4z" fill="#558BB4"/>
<path transform="translate(860,640)" d="m0 0 3 2-5 5 1 12 2 14v6l-3-1-1-15-2-7v-9l4-6z" fill="#2E6A9D"/>
<path transform="translate(914,809)" d="m0 0h4v2l-38 13-4-1 2-2 17-5 17-6z" fill="#4B5061"/>
<path transform="translate(146,1074)" d="m0 0 1 3-30 10-3-1 12-4 2-3 12-4z" fill="#A39A8E"/>
<path transform="translate(141,721)" d="m0 0 3 1-3 4-1 53h-1l-1-36-1-10 2-11z" fill="#598DB2"/>
<path transform="translate(300,717)" d="m0 0 4 2 3 5 8 6v2l-7-1-5-3-4-7z" fill="#FDFDFD"/>
<path transform="translate(895,663)" d="m0 0 1 3-6 15-5 9-2 2h-3l-3-10v-5h2l2 9h4l7-15 2-7z" fill="#558BB4"/>
<path transform="translate(1013,1333)" d="m0 0h1v52l-1 2h-9l-1-4 8 1 1-1z" fill="#687A8A"/>
<path transform="translate(538,942)" d="m0 0m-5 1h5v2l-36 12-4-1 15-6z" fill="#A8B49E"/>
<path transform="translate(667,898)" d="m0 0 3 1-27 10-21 7-2-1 9-4 7-3v-2l5-1-2 2 11-3z" fill="#A5B09D"/>
<path transform="translate(312,878)" d="m0 0 4 1 3 5-1 6h-6l-2-2v-7z" fill="#24639D"/>
<path transform="translate(1e3 638)" d="m0 0 7 1 6 5 1 4h-2l-4-5-2-1h-7l-5 1v2l-12 2v-2z" fill="#B2D4DB"/>
<path transform="translate(1059,609)" d="m0 0h1v14l4-1 3-2-2 8-7 1-1-2v-9l1-8z" fill="#B7D8DF"/>
<path transform="translate(528,123)" d="m0 0m-6 1h6v2l-2 1-25 2h-13v-1l10-2z" fill="#BC463E"/>
<path transform="translate(563,1271)" d="m0 0h13l1 6-1 28-2 1v-34h-11z" fill="#4D5260"/>
<path transform="translate(427,823)" d="m0 0 2 3v16l2 12 5 10 6 8-4-2-6-7-4-10-1-3z" fill="#44799F"/>
<path transform="translate(607,743)" d="m0 0 6 2v9l-4 1-4-2-1-7z" fill="#FDFDFD"/>
<path transform="translate(800,662)" d="m0 0 3 1-10 4-12 4-2 2-1 14-3-4 1-11 5-4z" fill="#23639D"/>
<path transform="translate(252,872)" d="m0 0h3l1 2v9l-2 2-4-1-2-3 1-6z" fill="#FDFDFD"/>
<path transform="translate(1044,767)" d="m0 0h5l-1 3-20 7h-3l-1-3z" fill="#9F9892"/>
<path transform="translate(530,590)" d="m0 0 4 3 4 16 2 14 1 12-2-2-3-16-3-19-3-6z" fill="#43789D"/>
<path transform="translate(725,396)" d="m0 0m-4 1h4l-1 3-32 10 1-3 10-4 16-5z" fill="#BD453C"/>
<path transform="translate(522,801)" d="m0 0h1l1 5 3 32 3 7 6 2v1h-7l-3-5-2-10-3-26v-5z" fill="#A7C8C7"/>
<path transform="translate(367,861)" d="m0 0h5l2 2-1 7-2 2-5-1-1-7z" fill="#FDFDFD"/>
<path transform="translate(540,635)" d="m0 0h2l3 18v10l-1 2h-2v2l-2 1h-8l-1-2 8-1 4-1-2-21z" fill="#43789E"/>
<path transform="translate(899,176)" d="m0 0 3 3 2 4 2 9-2 7-2-1-1-6-1-3 1-2h-2z" fill="#BF433B"/>
<path transform="translate(410,829)" d="m0 0 1 2-7 11-2 3 1 7 9 9 2 1-1 2-10-8-4-6 1-7 8-12z" fill="#43789D"/>
<path transform="translate(906,1445)" d="m0 0h1v25l-4 1v-13l-1-4 2-5z" fill="#63707E"/>
<path transform="translate(521,1312)" d="m0 0h2l1 12v23h-1l-1-9-1-3v-15l-1-4z" fill="#646B69"/>
<path transform="translate(444,858)" d="m0 0 5 1v2l4 2 8 5v2h-6l-7-4-4-6z" fill="#FDFDFD"/>
<path transform="translate(466,672)" d="m0 0h1l1 11 2 4-6 1v4l-2-1-1-4-4-7h9z" fill="#5286AA"/>
<path transform="translate(963,658)" d="m0 0 2 1 4 26 2 6-3-1-5-16z" fill="#306C9D"/>
<path transform="translate(308,852)" d="m0 0h6l3 5-1 3h-9l-1-1v-6z" fill="#FDFDFD"/>
<path transform="translate(662,545)" d="m0 0 5 3 1 5-1 1h-8l-2-3 1-5z" fill="#FDFDFD"/>
<path transform="translate(1068,593)" d="m0 0 7 1 2 2-1 7-4 8-1 7h-1v-8l4-14h-8l-6 3 2-5z" fill="#437CA9"/>
<path transform="translate(960,238)" d="m0 0 2 4 3 9 1 2 4 1 10-2-1 2-7 2h-9l-3-4z" fill="#D49281"/>
<path transform="translate(595,116)" d="m0 0h13v2l-13 2h-18l2-1 1-2 2 1z" fill="#BD453D"/>
<path transform="translate(809,847)" d="m0 0h4v3l-13 5-10 1 4-2v-2z" fill="#A28D85"/>
<path transform="translate(714,691)" d="m0 0h3l-1 3-8 6-7 8-4 6-1-2 2-5 3-5 9-8z" fill="#326D9D"/>
<path transform="translate(414,660)" d="m0 0 6 2 1 7-3 2h-5l-1-7z" fill="#23639D"/>
<path transform="translate(662,897)" d="m0 0 3 1-1 2-23 8-3-1 3-1v-2z" fill="#A07E7B"/>
<path transform="translate(360,727)" d="m0 0v3l-5 6-7 4-10 4-3-1v-2l14-5 9-7z" fill="#2F6B9D"/>
<path transform="translate(1043,604)" d="m0 0h7l-1 6-4 13-2 1 1-9 2-8-7 1z" fill="#B6D7DE"/>
<path transform="translate(388,149)" d="m0 0 3 4 5 8-4 4h-7l2-4 2-6z" fill="#AF574E"/>
<path transform="translate(411,1091)" d="m0 0h2l7 23-1 4-2-1-3-13-2-2z" fill="#4B4F53"/>
<path transform="translate(1094,748)" d="m0 0 3 2-32 11-3-1 4-3 12-3z" fill="#475267"/>
<path transform="translate(265,712)" d="m0 0h9l2 2-1 7-4 4h-2l1-6-2-5z" fill="#6497BB"/>
<path transform="translate(892,667)" d="m0 0 1 4-8 16h-4l-2-6-1-4v-8h1l2 11 1 2h3l5-10z" fill="#41769D"/>
<path transform="translate(963,641)" d="m0 0h1l5 37 2 11-2-1-4-20-1-9-1-1z" fill="#5288B1"/>
<path transform="translate(23,635)" d="m0 0m-4 1h4v2l-14 5h-2v2l-7 2 1-5 9-2z" fill="#BF433B"/>
<path transform="translate(1e3 629)" d="m0 0h13l5 2v2h2l1 5h-2l-3-5-2-1h-15l-11 2 3-3z" fill="#6B9DC0"/>
<path transform="translate(353,1269)" d="m0 0 16 1 21 1-4 2h-18l-12-1-3-1z" fill="#4B4C4C"/>
<path transform="translate(986,307)" d="m0 0m-4 1h4v2l-27 9-4-1 2-2 18-5z" fill="#BB463E"/>
<path transform="translate(855,943)" d="m0 0h2l-1 3-7 4h-4v2l-5 3-6 2-2 1-2-2z" fill="#4E4D4E"/>
<path transform="translate(402,699)" d="m0 0h1v11l-5 8-7 2h-6l-1-2 11-2 4-6z" fill="#5A8DB0"/>
<path transform="translate(223,692)" d="m0 0h2v2l-15 6-2 2v14l-2-3-1-2v-9l5-5 7-3z" fill="#558BB4"/>
<path transform="translate(907,674)" d="m0 0 1 4-5 13-2 7-5 11-3 7-1-2z" fill="#43789D"/>
<path transform="translate(550,582)" d="m0 0h5l4 6-1 4-3-3-6-1v5l-2-4 1-5z" fill="#B0D1D5"/>
<path transform="translate(530,942)" d="m0 0 2 1-5 3-14 5-5 2-3-1 3-3z" fill="#9D8383"/>
<path transform="translate(750,777)" d="m0 0 2 1-7 5-6 1h-20v-2l20-1 9-3z" fill="#306B9D"/>
<path transform="translate(383,701)" d="m0 0h1v8l-1 8 2 3-5-1-2-6 1-5z" fill="#4B7FA3"/>
<path transform="translate(234,702)" d="m0 0m-3 1h3v2l-3 1-2 3h-2v10l1 3 8-1-3 2h-6l-4-8 1-7z" fill="#5186AD"/>
<path transform="translate(354,1139)" d="m0 0 2 1-5 10-1 28h-1l-1-11v-13l1-11h2l1-3z" fill="#43403E"/>
<path transform="translate(206,932)" d="m0 0 5 5 5 8 3 6-1 2-5-8-1-3-6-5-1 11h-1v-14z" fill="#43789D"/>
<path transform="translate(210,730)" d="m0 0h1l4 22v6l-3-4-2-10-1-9z" fill="#5285A8"/>
<path transform="translate(880,153)" d="m0 0 5 1 4 5h3v4l3 1 2 4 1 6-2-4h-2l-1-5h-2l-1-2-4-2z" fill="#C14A41"/>
<path transform="translate(680,775)" d="m0 0 1 3h2l2 11h-5l-2-10v-3z" fill="#B9DAE2"/>
<path transform="translate(159,754)" d="m0 0h2v28l4 1-7 1-1-3 1-2z" fill="#23639D"/>
<path transform="translate(93,722)" d="m0 0m-1 1m-2 1 4 2-1 4 9 10 3 3 3 2-4 1-11-11-3-5z" fill="#91BBCF"/>
<path transform="translate(516,637)" d="m0 0h5l3 6 2 17-1-2h-2l-2-13-2-3v-3h-7z" fill="#5689AB"/>
<path transform="translate(1039,178)" d="m0 0h2l2 17-1 6-3-1z" fill="#AE7668"/>
<path transform="translate(231,943)" d="m0 0 4 3-1 6-4 1-4-6 1-3z" fill="#FDFDFD"/>
<path transform="translate(411,636)" d="m0 0 7 3 1 3-1 2h-8l-2-4z" fill="#FDFDFD"/>
<path transform="translate(903,646)" d="m0 0 1 3-9 24-3 6-1-2 4-11 2-9 2-4h2z" fill="#77A7C6"/>
<path transform="translate(465,613)" d="m0 0 3 1 3 6-1 4-3-7-4 1v7l2 12v6h-1l-3-17v-10z" fill="#A7C8C7"/>
<path transform="translate(636,592)" d="m0 0 1 2-5 21-3 5-7 1-4-4 8 2 4-6 5-20z" fill="#44799E"/>
<path transform="translate(850,1406)" d="m0 0h23v1l-22 1-3 8h-2l-1-2v-7z" fill="#656B78"/>
<path transform="translate(738,700)" d="m0 0h7l-3 2-8 2-9 5-6 5v-3l5-5 9-5z" fill="#306B9D"/>
<path transform="translate(312,875)" d="m0 0 4 2 5 7-1 5-2-1-1-5-2-4-3-1-1 3v7l5 2v1h-6l-1-2v-9z" fill="#43789D"/>
<path transform="translate(827,708)" d="m0 0h6l-4 2-13 6-4-2 1-2 7-3z" fill="#2D699D"/>
<path transform="translate(261,709)" d="m0 0m-4 1h4v2l-9 3-6 4-10 2 5-4 12-5z" fill="#2C6A9F"/>
<path transform="translate(1009,97)" d="m0 0 4 1 2 10v18l-2 2-1-21z" fill="#A97568"/>
<path transform="translate(591,1501)" d="m0 0h1l1 12v15l-2 6h-2l1-7v-14z" fill="#4A4A49"/>
<path transform="translate(892,1286)" d="m0 0h1l2 18v4l-1 5-3-1z" fill="#58646F"/>
<path transform="translate(334,1009)" d="m0 0 2 1-1 2-20 7-3-1 1-2z" fill="#A47770"/>
<path transform="translate(313,683)" d="m0 0 1 2-3 9-1 16-2-2v-14l1-7z" fill="#24649D"/>
<path transform="translate(974,619)" d="m0 0 2 4 3 1 2 10 10-1-4 3h-7l-3-3-3-9z" fill="#44799E"/>
<path transform="translate(781,235)" d="m0 0h1v13l-1 17h-1l-2-14 1-9z" fill="#BA5349"/>
<path transform="translate(1021,775)" d="m0 0h4l-1 3-8 3-11 2 1-3z" fill="#A58378"/>
<path transform="translate(1062,761)" d="m0 0 3 1 1 2-15 5-3-1-1-2z" fill="#97AEAE"/>
<path transform="translate(844,739)" d="m0 0h2l-2 4-16 8-7 1 2-1v-2l15-6z" fill="#2B689D"/>
<path transform="translate(936,618)" d="m0 0 2 4 10-1 4-1h7v1h-6v2l-7 2h-9l-2-2z" fill="#ACCFD8"/>
<path transform="translate(597,559)" d="m0 0 2 1-8 8-7 10-2-4 7-8z" fill="#356F9D"/>
<path transform="translate(75,1097)" d="m0 0h8l-2 2-14 5-7-1 3-2z" fill="#98AFAE"/>
<path transform="translate(301,897)" d="m0 0 5 3-2 4-7 1-1-3 2-4z" fill="#FDFDFD"/>
<path transform="translate(254,859)" d="m0 0 7 1 4 4 1 7v5l-2-4-3-8-5-2h-6z" fill="#306C9D"/>
<path transform="translate(403,638)" d="m0 0 1 3-5 25-1 6h-2l1-10 5-22z" fill="#A7C8C7"/>
<path transform="translate(654,599)" d="m0 0 2 1-2 3h-2l-2 11-5 10-1-2 2-4 2-12z" fill="#8DB7CE"/>
<path transform="translate(1066,595)" d="m0 0h6l2 1v5l-4-4h-3l-5 6-1 6-3 1 1-9 4-5z" fill="#9CC4D5"/>
<path transform="translate(967,136)" d="m0 0 2 4v23l-2 3-1-14v-13z" fill="#BF433B"/>
<path transform="translate(349,1103)" d="m0 0 2 1-5 3-11 4-7 1-1-2z" fill="#555"/>
<path transform="translate(372,1096)" d="m0 0 2 1-6 4h-5v2h-5l-5 2-1-3z" fill="#4F5154"/>
<path transform="translate(260,921)" d="m0 0 2 3 3 16h4l1-5h1v6l-2 2-5-1-4-16z" fill="#A7C8C7"/>
<path transform="translate(662,802)" d="m0 0 1 4-8 7h-14l-1-2h11l7-4z" fill="#2F6B9D"/>
<path transform="translate(15,696)" d="m0 0 4 1-1 2-14 5h-4l1-3z" fill="#A3978C"/>
<path transform="translate(364,693)" d="m0 0h6l5 5 1 6-3 9-4 4 3-9 1-2v-7l-2-3-5-1h-5z" fill="#43789D"/>
<path transform="translate(917,622)" d="m0 0h7l2 2 1 9h-2l-1-8-7 1-6 4 2-5z" fill="#9FC6D5"/>
<path transform="translate(983,873)" d="m0 0 2 1-3 8-4-3v2h-2v12h-1v-14l4-4z" fill="#687987"/>
<path transform="translate(892,820)" d="m0 0 4 1-3 1-1 2-15 5-3-1 3-3z" fill="#A8A18D"/>
<path transform="translate(1167,305)" d="m0 0 1 4-16 4-6 1v-2l15-5z" fill="#6C4D47"/>
<path transform="translate(816,228)" d="m0 0 3 2-1 7-2 1 1 8h-2l-1 2v-16z" fill="#BF463D"/>
<path transform="translate(772,861)" d="m0 0 4 1-1 2-13 4-4-1 2-3z" fill="#A89382"/>
<path transform="translate(989,645)" d="m0 0 4 1-11 4-1 2-1 12-2-1v-10l3-7z" fill="#89B5CD"/>
<path transform="translate(599,605)" d="m0 0 8 4 14 10-3 1-4-2v-2l-5-2-10-7z" fill="#5B90B6"/>
<path transform="translate(351,1225)" d="m0 0h1l1 43-3-1z" fill="#4A4F5C"/>
<path transform="translate(412,803)" d="m0 0 7 1 3 5-3 8-3 5-1-2 4-9-2-5-4-1-7 1 2-2z" fill="#43789D"/>
<path transform="translate(1e3 631)" d="m0 0h15v2h-13l-13 4h-7l3-2z" fill="#AED0DA"/>
<path transform="translate(997,598)" d="m0 0h1l-1 7-11 5h-2v2l-5 2-3-1h2l1-3 13-5 3-1z" fill="#AFD2DC"/>
<path transform="translate(899,191)" d="m0 0 3 1 1 7-1 18h-1z" fill="#B8685C"/>
<path transform="translate(401,986)" d="m0 0 2 2-15 6-7 1 2-3z" fill="#A27B76"/>
<path transform="translate(519,762)" d="m0 0h9l4 4 1 2v6l-2-1-2-8h-16l1-2z" fill="#23639D"/>
<path transform="translate(513,591)" d="m0 0 1 3-1 8 3 7 1 2v8l-2-3-4-11v-10z" fill="#43789D"/>
<path transform="translate(1089,273)" d="m0 0 3 1-11 4h-2v2l-3 1h-9l2-2z" fill="#C34B42"/>
<path transform="translate(284,1026)" d="m0 0 2 1-1 2-15 5-5 1 4-4z" fill="#A6756B"/>
<path transform="translate(633,907)" d="m0 0 4 1-8 4-9 3-4-1 5-1v-2z" fill="#9F807D"/>
<path transform="translate(439,973)" d="m0 0 3 1 5-1 3 1-14 5-6-1v-2z" fill="#A19C92"/>
<path transform="translate(609,781)" d="m0 0 2 3 1 11h-2l-1 2-1-2v-13z" fill="#B9DAE2"/>
<path transform="translate(819,656)" d="m0 0 15 1v1l-17 2-3 1h-8l3-2z" fill="#4079A7"/>
<path transform="translate(1031,622)" d="m0 0h1l-1 12-2 4-3 1-2-1-1-5 4 1 2-5z" fill="#29679D"/>
<path transform="translate(246,949)" d="m0 0h1l-1 8-8 6-2-1 5-6 2-1z" fill="#29679D"/>
<path transform="translate(517,771)" d="m0 0h7l1 9-2-4v-2h-5v10l1 5-3-3v-13z" fill="#A7C8C7"/>
<path transform="translate(364,701)" d="m0 0 4 1v5h-3l-1 3-3-1v-6z" fill="#B1D2D7"/>
<path transform="translate(847,671)" d="m0 0h1l1 8-1 11 2 4 4 3-1 2-7-5-1-4 1-3z" fill="#43789D"/>
<path transform="translate(550,617)" d="m0 0h3l2 11v5l-3-1-2-11z" fill="#6C9DBD"/>
<path transform="translate(1072,601)" d="m0 0 1 2-2 7-3 18-3 3 2-8 2-17z" fill="#5D92B8"/>
<path transform="translate(231,1044)" d="m0 0h6l-3 2-3 3-11 4-3-1 1-2 11-4h2z" fill="#A7A290"/>
<path transform="translate(207,960)" d="m0 0h1l1 10-1 4-5 2h-6l-2-2 10-2z" fill="#38719D"/>
<path transform="translate(594,920)" d="m0 0h6l-4 3-11 4-4-1 5-3z" fill="#A47871"/>
<path transform="translate(922,700)" d="m0 0 2 3 2 4 9 2-3 1v2h-6l-4-4z" fill="#316C9D"/>
<path transform="translate(443,660)" d="m0 0 5 5 6 7 2 6-5-5-7-8z" fill="#5487AA"/>
<path transform="translate(664,572)" d="m0 0 4 2 1 5-1 1h-6l1-7z" fill="#23639D"/>
<path transform="translate(793,187)" d="m0 0 3 1-7 16-2 3v-6l3-8z" fill="#C35248"/>
<path transform="translate(92,1091)" d="m0 0 3 1v2l-8 3-9 1 1-2z" fill="#9D9491"/>
<path transform="translate(563,749)" d="m0 0 3 1-5 7-3 7-2-3 2-6z" fill="#3570A1"/>
<path transform="translate(801,742)" d="m0 0 9 1 1 3-6 2-4-1-1-4z" fill="#FDFDFD"/>
<path transform="translate(634,613)" d="m0 0 1 4-3 7-6 2 1-4-3-1 6-3 3-2z" fill="#7DABC4"/>
<path transform="translate(829,192)" d="m0 0 2 1-3 6-2 7-5 3 3-9z" fill="#BF584E"/>
<path transform="translate(331,888)" d="m0 0 5 1 1 5-4 1-4-1 1-5z" fill="#FDFDFD"/>
<path transform="translate(914,809)" d="m0 0h4v2l-21 7-1-2z" fill="#41546F"/>
<path transform="translate(223,689)" d="m0 0m5 0 3 1-17 6h-2l2-4 9-2z" fill="#336E9D"/>
<path transform="translate(38,689)" d="m0 0h2v2l-19 7-3-1 2-2z" fill="#A97164"/>
<path transform="translate(914,662)" d="m0 0 3 2v8l-5-5-1 4h-2l-1 3 1-7z" fill="#29679D"/>
<path transform="translate(522,658)" d="m0 0h3l4 7 3 3-7-1-3-5z" fill="#3671A2"/>
<path transform="translate(694,791)" d="m0 0 1 3-3 5-4 3-3-1v-2l5-4z" fill="#2A689D"/>
<path transform="translate(676,594)" d="m0 0m-3 1 3 1-9 4h-3l-2 4-3-1 3-4 2-2z" fill="#28669D"/>
<path transform="translate(175,122)" d="m0 0h8l10 2v2l-24-2v-1z" fill="#BA4840"/>
<path transform="translate(964,117)" d="m0 0 3 3 2 7-2 6-2-1-1-10z" fill="#BF433B"/>
<path transform="translate(601,918)" d="m0 0 6 1v2l-10 4-4-1 5-3-1-2z" fill="#A0B1A5"/>
<path transform="translate(937,801)" d="m0 0h4v2l-14 5h-5l3-2z" fill="#4B5061"/>
<path transform="translate(1e3 598)" d="m0 0 2 1-1 5-4 5-8 4h-3v-2l12-6z" fill="#27669D"/>
<path transform="translate(710,596)" d="m0 0h2v8l-5 3h-7l-3-1 1-2 7 1 5-4z" fill="#6496B9"/>
<path transform="translate(844,180)" d="m0 0h10l3 2-16 2-3-1z" fill="#BD655A"/>
<path transform="translate(16,1117)" d="m0 0h4v2l-20 6 1-3z" fill="#A8766A"/>
<path transform="translate(488,871)" d="m0 0 2 1-4 5-6 3-4-1 5-4z" fill="#2D6A9D"/>
<path transform="translate(1049,842)" d="m0 0h1v22h-1v-14l-4-1 3-6z" fill="#43403F"/>
<path transform="translate(1133,737)" d="m0 0h2l-1 3-11 4h-5l1-2z" fill="#A77F72"/>
<path transform="translate(330,650)" d="m0 0h20v2h-13l-9 1v-2z" fill="#2E6A9D"/>
<path transform="translate(963,289)" d="m0 0h2v2l-14 5-7 1-4-2 10-1z" fill="#B66F63"/>
<path transform="translate(1137,256)" d="m0 0h2v3l-11 4h-2l2-4z" fill="#C8554C"/>
<path transform="translate(498,126)" d="m0 0h12v2l-9 1h-13v-1z" fill="#B94941"/>
<path transform="translate(429,854)" d="m0 0h2l5 10 6 8-4-2-6-7-3-6z" fill="#43789D"/>
<path transform="translate(794,740)" d="m0 0h1l2 9 1 1 9 1-2 2h-8l-2-1-1-3z" fill="#A7C8C7"/>
<path transform="translate(319,674)" d="m0 0 2 1-6 8-5 3 2-6z" fill="#326C9D"/>
<path transform="translate(295,671)" d="m0 0v3l-6 10-1 2h-2l1-6 7-8z" fill="#23639D"/>
<path transform="translate(965,643)" d="m0 0 3 3 1 5v8l-2 2z" fill="#B4D5DA"/>
<path transform="translate(602,564)" d="m0 0 4 1-2 6-3 2v-4l-4-1z" fill="#A7C8C7"/>
<path transform="translate(104,1087)" d="m0 0h5l-5 4-5 2h-5l1-3z" fill="#A88274"/>
<path transform="translate(1081,756)" d="m0 0h2v2l-15 5h-5l2-1v-2l10-2z" fill="#A69686"/>
<path transform="translate(820,750)" d="m0 0 3 1h-2v2l-13 5-4-2z" fill="#326D9D"/>
<path transform="translate(914,658)" d="m0 0 3 1 1 3v10h-1l-1-8h-3l-3 3 2-7z" fill="#43789D"/>
<path transform="translate(1042,1359)" d="m0 0h1v10h-9v-1h5l1-7z" fill="#59677A"/>
<path transform="translate(937,805)" d="m0 0 3 1-1 2-12 4-3-1 5-3z" fill="#A8AE99"/>
<path transform="translate(856,728)" d="m0 0 1 4-8 7-3 1 2-4 5-5z" fill="#27659D"/>
<path transform="translate(251,698)" d="m0 0 4 1-3 1-1 3-7 1-5-1 3-2z" fill="#326C9D"/>
<path transform="translate(257,684)" d="m0 0h7l2 2-4 4-3-1 2-1-1-2-8 2-4-1z" fill="#A7C8C7"/>
<path transform="translate(656,607)" d="m0 0 1 3-4 13h-2l2-10 2-5z" fill="#23639D"/>
<path transform="translate(584,590)" d="m0 0 3 1v8l-7-4z" fill="#BADAE2"/>
<path transform="translate(652,537)" d="m0 0m-2 1h2v2l-5 4-3 7h-2l1-6 5-6z" fill="#23639D"/>
<path transform="translate(1067,340)" d="m0 0h6l-2 2-12 4h-6l2-2z" fill="#46474D"/>
<path transform="translate(68,163)" d="m0 0 1 2 3-1v7l-3 4-2-4z" fill="#B45A51"/>
<path transform="translate(350,905)" d="m0 0 2 1 1 7-3 2h-5l-4-4 1-2 3 3h6z" fill="#A7C8C7"/>
<path transform="translate(547,844)" d="m0 0v3l-3 4h-2l-1 3-5 2 1-4 5-4 1-2z" fill="#2A679D"/>
<path transform="translate(771,746)" d="m0 0 1 2-8 14-4 3 2-5 4-7h2l2-6z" fill="#A7C8C7"/>
<path transform="translate(838,710)" d="m0 0 2 2v8l-7 9v-3l4-6z" fill="#43789D"/>
<path transform="translate(209,696)" d="m0 0 2 1-5 5v11l-3-2v-10z" fill="#43789D"/>
<path transform="translate(238,684)" d="m0 0 4 2-8 3-11 2 3-3z" fill="#2D699D"/>
<path transform="translate(486,675)" d="m0 0h2v7l-5 5-3 2-2-2 5-3z" fill="#3873A6"/>
<path transform="translate(895,663)" d="m0 0 1 3-6 15-2 4-2-1 6-13 2-7z" fill="#5187B0"/>
<path transform="translate(503,641)" d="m0 0 3 1-1 2h-3v2l-4 1h-7l3-2z" fill="#3672A4"/>
<path transform="translate(210,1051)" d="m0 0h7l-3 2-12 4-3-1 8-4z" fill="#AA7063"/>
<path transform="translate(68,725)" d="m0 0h7v2l-9 2-2 3h-2v-4z" fill="#23639D"/>
<path transform="translate(542,654)" d="m0 0 2 2v9h-2v2l-2 1h-8l-1-2 8-1 4-1z" fill="#6B9BB7"/>
<path transform="translate(3,641)" d="m0 0h6v2h-2v2l-7 2 1-5z" fill="#C54E46"/>
<path transform="translate(601,630)" d="m0 0 5 2 7 4 3 2-5 1-8-5z" fill="#326C9D"/>
<path transform="translate(1040,604)" d="m0 0 3 1-3 3-1 7-3 2v-8z" fill="#9DC4D4"/>
<path transform="translate(77,609)" d="m0 0 9 5-3 5h-2l-2-5z" fill="#CDA380"/>
<path transform="translate(1076,596)" d="m0 0 1 4-5 11-1 7h-1v-8l3-9h2z" fill="#2F6C9F"/>
<path transform="translate(1065,78)" d="m0 0 4 1v9h-2l-4-9z" fill="#C1796D"/>
<path transform="translate(412,889)" d="m0 0 6 3 10 1-1 2h-11z" fill="#316C9D"/>
<path transform="translate(94,750)" d="m0 0 2 3-2 5-3 2h-7l-2-1v-2h10z" fill="#25649D"/>
<path transform="translate(463,693)" d="m0 0 1 2-5 5h-8l-2-1v-2h10z" fill="#23639D"/>
<path transform="translate(800,662)" d="m0 0 3 1-10 4-8 2 1-3z" fill="#306B9D"/>
<path transform="translate(1035,351)" d="m0 0 3 1-7 2v2l-7 2-4-1 12-5z" fill="#46464B"/>
<path transform="translate(1143,313)" d="m0 0h3v2l-11 4-4-1 3-2z" fill="#72524C"/>
<path transform="translate(354,1139)" d="m0 0 2 1-5 10h-2v-7h2l1-3z" fill="#47484B"/>
<path transform="translate(282,739)" d="m0 0h4v3l2 1-2 2v-2h-11l2-3z" fill="#326EA2"/>
<path transform="translate(890,719)" d="m0 0 2 4-8 7-3-1 5-4z" fill="#316C9D"/>
<path transform="translate(795,706)" d="m0 0 6 1v3l-5 2-2-1z" fill="#FDFDFD"/>
<path transform="translate(572,650)" d="m0 0h2v2l-6 4-10-1 1-2h7z" fill="#6E9FBE"/>
<path transform="translate(415,1105)" d="m0 0 3 2 2 10h-3l-2-7z" fill="#504F51"/>
<path transform="translate(804,970)" d="m0 0 3 1-2 5h-2l2 4-4-2v-5z" fill="#494C51"/>
<path transform="translate(994,784)" d="m0 0 3 1-7 2v3l-5 2-3-1 2-1-1-2z" fill="#92AAB1"/>
<path transform="translate(412,661)" d="m0 0 1 4v6l4 1h-6l-1-1v-8z" fill="#467B9F"/>
<path transform="translate(564,586)" d="m0 0 2 4 2 5 6-3-2 4-2 2-4-1-2-5z" fill="#43789D"/>
<path transform="translate(343,523)" d="m0 0h2l2 5-2 10h-1l-1-7z" fill="#A8B49E"/>
<path transform="translate(1018,357)" d="m0 0 3 1-2 2-5 2-8 1v-2z" fill="#484B56"/>
<path transform="translate(931,280)" d="m0 0h1l2 13 3 5-4-2-2-2-1-12z" fill="#BF433B"/>
<path transform="translate(144,118)" d="m0 0 7 1 3 3-18-1v-1l7-1z" fill="#B94941"/>
<path transform="translate(310,1017)" d="m0 0 3 1-1 2-9 3-3-1 1-2z" fill="#A07E7B"/>
<path transform="translate(868,827)" d="m0 0h6l-4 3-10 2 2-3z" fill="#AA7063"/>
<path transform="translate(130,796)" d="m0 0 2 1-2 6-1 8-2-3v-7z" fill="#336FA3"/>
<path transform="translate(159,769)" d="m0 0h1l1 13 4 1-7 1-1-3 1-2z" fill="#3F78A4"/>
<path transform="translate(210,730)" d="m0 0h1l2 10v4h-2l-2-5z" fill="#5789AB"/>
<path transform="translate(730,684)" d="m0 0 3 1-1 2-11 3-4 1 3-3z" fill="#29679D"/>
<path transform="translate(431,678)" d="m0 0 4 2v2l-8 2h-5l4-3z" fill="#6F9FBE"/>
<path transform="translate(647,580)" d="m0 0h3l2 4-4 2-3 3 1-7z" fill="#B9DAE2"/>
<path transform="translate(725,396)" d="m0 0m-4 1h4l-1 3-11 3 1-3z" fill="#BC463E"/>
<path transform="translate(207,956)" d="m0 0h2l1 3v11h-2z" fill="#23639D"/>
<path transform="translate(791,853)" d="m0 0 3 1-1 1 4 1-9 3-3-1h2l-1-3z" fill="#9CA9A4"/>
<path transform="translate(645,795)" d="m0 0 4 1v5l-4 1-1-1v-5z" fill="#FDFDFD"/>
<path transform="translate(1075,755)" d="m0 0 2 1-12 5-3-1 4-3z" fill="#44536B"/>
<path transform="translate(261,711)" d="m0 0 4 2-13 4-2-1 4-3z" fill="#5286AA"/>
<path transform="translate(910,630)" d="m0 0 1 4-3 5-2 7h-2l1-6z" fill="#8EB7CA"/>
<path transform="translate(736,872)" d="m0 0h5v2l-10 3-3-1 5-3z" fill="#A7746A"/>
<path transform="translate(179,763)" d="m0 0h2v3h2l1 2v8h-2l-2-9z" fill="#316DA1"/>
<path transform="translate(85,743)" d="m0 0 3 4v6h-6l-2-3 6 1z" fill="#A7C8C7"/>
<path transform="translate(355,700)" d="m0 0 1 2-4 10-5 5 2-4 5-12z" fill="#43789D"/>
<path transform="translate(537,635)" d="m0 0 2 3 1 4 2 1v9l-2-3-3-10z" fill="#80ADC6"/>
<path transform="translate(1053,603)" d="m0 0 3 2-1 14h-1l-1-7-1-3z" fill="#43789D"/>
<path transform="translate(1123,261)" d="m0 0m-2 1 5 1-3 2-12 2 1-2z" fill="#C65148"/>
<path transform="translate(265,1032)" d="m0 0 3 1-3 3-10 2v-2z" fill="#968E95"/>
<path transform="translate(530,942)" d="m0 0 2 1-5 3-2 1h-8l3-2z" fill="#949099"/>
<path transform="translate(312,881)" d="m0 0 4 1 1 5h-4l-1-5z" fill="#094F95"/>
<path transform="translate(757,773)" d="m0 0 2 1-4 5-7 2 4-5z" fill="#2B689D"/>
<path transform="translate(181,708)" d="m0 0h7l3 4v7l-2-3-2-6-6-1z" fill="#6798B8"/>
<path transform="translate(206,702)" d="m0 0h1l1 6v8l-2-3-1-2v-8z" fill="#6497BA"/>
<path transform="translate(516,637)" d="m0 0h5l3 6-1 3-3-5v-2h-8z" fill="#6D9EBF"/>
<path transform="translate(633,630)" d="m0 0h10l-2 2-10 2h-3l2-3z" fill="#477CA2"/>
<path transform="translate(457,128)" d="m0 0 6 2v1l-13 1 1-3z" fill="#BA483F"/>
<path transform="translate(565,777)" d="m0 0h7l4 7v5l-2-3-3-7-6-1z" fill="#A8C9C9"/>
<path transform="translate(1092,751)" d="m0 0 5 1-3 2-8 3-3-1 6-3h3z" fill="#A3AE9E"/>
<path transform="translate(229,702)" d="m0 0m-2 1h2l-2 4-3 3-2 3-1-4 5-5z" fill="#83B0CC"/>
<path transform="translate(804,661)" d="m0 0h7l-3 2-11 4-3-1 9-4z" fill="#4E85AE"/>
</svg>
